<svg width="770" height="98" viewBox="0 0 770 98" fill="none" xmlns="http://www.w3.org/2000/svg">
<path d="M-7.62939e-06 96V2.90909H32.5454C39.0303 2.90909 44.3788 4.0303 48.5909 6.27273C52.803 8.48485 55.9394 11.4697 58 15.2273C60.0606 18.9545 61.0909 23.0909 61.0909 27.6364C61.0909 31.6364 60.3788 34.9394 58.9545 37.5455C57.5606 40.1515 55.7121 42.2121 53.4091 43.7273C51.1364 45.2424 48.6667 46.3636 46 47.0909V48C48.8485 48.1818 51.7121 49.1818 54.5909 51C57.4697 52.8182 59.8788 55.4242 61.8182 58.8182C63.7576 62.2121 64.7273 66.3636 64.7273 71.2727C64.7273 75.9394 63.6667 80.1364 61.5454 83.8636C59.4242 87.5909 56.0758 90.5455 51.5 92.7273C46.9242 94.9091 40.9697 96 33.6364 96H-7.62939e-06ZM11.2727 86H33.6364C41 86 46.2273 84.5758 49.3182 81.7273C52.4394 78.8485 54 75.3636 54 71.2727C54 68.1212 53.197 65.2121 51.5909 62.5455C49.9848 59.8485 47.697 57.697 44.7273 56.0909C41.7576 54.4545 38.2424 53.6364 34.1818 53.6364H11.2727V86ZM11.2727 43.8182H32.1818C35.5758 43.8182 38.6364 43.1515 41.3636 41.8182C44.1212 40.4848 46.303 38.6061 47.9091 36.1818C49.5454 33.7576 50.3636 30.9091 50.3636 27.6364C50.3636 23.5455 48.9394 20.0758 46.0909 17.2273C43.2424 14.3485 38.7273 12.9091 32.5454 12.9091H11.2727V43.8182ZM102.341 97.6364C97.9167 97.6364 93.9015 96.803 90.2954 95.1364C86.6894 93.4394 83.8257 91 81.7045 87.8182C79.5833 84.6061 78.5227 80.7273 78.5227 76.1818C78.5227 72.1818 79.3106 68.9394 80.8864 66.4545C82.4621 63.9394 84.5682 61.9697 87.2045 60.5455C89.8409 59.1212 92.75 58.0606 95.9318 57.3636C99.1439 56.6364 102.371 56.0606 105.614 55.6364C109.856 55.0909 113.295 54.6818 115.932 54.4091C118.598 54.1061 120.538 53.6061 121.75 52.9091C122.992 52.2121 123.614 51 123.614 49.2727V48.9091C123.614 44.4242 122.386 40.9394 119.932 38.4545C117.508 35.9697 113.826 34.7273 108.886 34.7273C103.765 34.7273 99.75 35.8485 96.8409 38.0909C93.9318 40.3333 91.8864 42.7273 90.7045 45.2727L80.5227 41.6364C82.3409 37.3939 84.7651 34.0909 87.7954 31.7273C90.8561 29.3333 94.1894 27.6667 97.7954 26.7273C101.432 25.7576 105.008 25.2727 108.523 25.2727C110.765 25.2727 113.341 25.5455 116.25 26.0909C119.189 26.6061 122.023 27.6818 124.75 29.3182C127.508 30.9545 129.795 33.4242 131.614 36.7273C133.432 40.0303 134.341 44.4545 134.341 50V96H123.614V86.5455H123.068C122.341 88.0606 121.129 89.6818 119.432 91.4091C117.735 93.1364 115.477 94.6061 112.659 95.8182C109.841 97.0303 106.402 97.6364 102.341 97.6364ZM103.977 88C108.22 88 111.795 87.1667 114.705 85.5C117.644 83.8333 119.856 81.6818 121.341 79.0455C122.856 76.4091 123.614 73.6364 123.614 70.7273V60.9091C123.159 61.4545 122.159 61.9545 120.614 62.4091C119.098 62.8333 117.341 63.2121 115.341 63.5455C113.371 63.8485 111.447 64.1212 109.568 64.3636C107.72 64.5758 106.22 64.7576 105.068 64.9091C102.28 65.2727 99.6742 65.8636 97.25 66.6818C94.8561 67.4697 92.9167 68.6667 91.4318 70.2727C89.9773 71.8485 89.25 74 89.25 76.7273C89.25 80.4545 90.6288 83.2727 93.3864 85.1818C96.1742 87.0606 99.7045 88 103.977 88ZM164.648 2.90909V96H153.92V2.90909H164.648ZM212.659 97.4545C206.114 97.4545 200.477 95.9091 195.75 92.8182C191.023 89.7273 187.386 85.4697 184.841 80.0455C182.295 74.6212 181.023 68.4242 181.023 61.4545C181.023 54.3636 182.326 48.1061 184.932 42.6818C187.568 37.2273 191.235 32.9697 195.932 29.9091C200.659 26.8182 206.174 25.2727 212.477 25.2727C217.386 25.2727 221.811 26.1818 225.75 28C229.689 29.8182 232.917 32.3636 235.432 35.6364C237.947 38.9091 239.508 42.7273 240.114 47.0909H229.386C228.568 43.9091 226.75 41.0909 223.932 38.6364C221.144 36.1515 217.386 34.9091 212.659 34.9091C208.477 34.9091 204.811 36 201.659 38.1818C198.538 40.3333 196.098 43.3788 194.341 47.3182C192.614 51.2273 191.75 55.8182 191.75 61.0909C191.75 66.4848 192.598 71.1818 194.295 75.1818C196.023 79.1818 198.447 82.2879 201.568 84.5C204.72 86.7121 208.417 87.8182 212.659 87.8182C215.447 87.8182 217.977 87.3333 220.25 86.3636C222.523 85.3939 224.447 84 226.023 82.1818C227.598 80.3636 228.72 78.1818 229.386 75.6364H240.114C239.508 79.7576 238.008 83.4697 235.614 86.7727C233.25 90.0455 230.114 92.6515 226.205 94.5909C222.326 96.5 217.811 97.4545 212.659 97.4545ZM276.341 97.6364C271.917 97.6364 267.902 96.803 264.295 95.1364C260.689 93.4394 257.826 91 255.705 87.8182C253.583 84.6061 252.523 80.7273 252.523 76.1818C252.523 72.1818 253.311 68.9394 254.886 66.4545C256.462 63.9394 258.568 61.9697 261.205 60.5455C263.841 59.1212 266.75 58.0606 269.932 57.3636C273.144 56.6364 276.371 56.0606 279.614 55.6364C283.856 55.0909 287.295 54.6818 289.932 54.4091C292.598 54.1061 294.538 53.6061 295.75 52.9091C296.992 52.2121 297.614 51 297.614 49.2727V48.9091C297.614 44.4242 296.386 40.9394 293.932 38.4545C291.508 35.9697 287.826 34.7273 282.886 34.7273C277.765 34.7273 273.75 35.8485 270.841 38.0909C267.932 40.3333 265.886 42.7273 264.705 45.2727L254.523 41.6364C256.341 37.3939 258.765 34.0909 261.795 31.7273C264.856 29.3333 268.189 27.6667 271.795 26.7273C275.432 25.7576 279.008 25.2727 282.523 25.2727C284.765 25.2727 287.341 25.5455 290.25 26.0909C293.189 26.6061 296.023 27.6818 298.75 29.3182C301.508 30.9545 303.795 33.4242 305.614 36.7273C307.432 40.0303 308.341 44.4545 308.341 50V96H297.614V86.5455H297.068C296.341 88.0606 295.129 89.6818 293.432 91.4091C291.735 93.1364 289.477 94.6061 286.659 95.8182C283.841 97.0303 280.402 97.6364 276.341 97.6364ZM277.977 88C282.22 88 285.795 87.1667 288.705 85.5C291.644 83.8333 293.856 81.6818 295.341 79.0455C296.856 76.4091 297.614 73.6364 297.614 70.7273V60.9091C297.159 61.4545 296.159 61.9545 294.614 62.4091C293.098 62.8333 291.341 63.2121 289.341 63.5455C287.371 63.8485 285.447 64.1212 283.568 64.3636C281.72 64.5758 280.22 64.7576 279.068 64.9091C276.28 65.2727 273.674 65.8636 271.25 66.6818C268.856 67.4697 266.917 68.6667 265.432 70.2727C263.977 71.8485 263.25 74 263.25 76.7273C263.25 80.4545 264.629 83.2727 267.386 85.1818C270.174 87.0606 273.705 88 277.977 88ZM327.92 96V26.1818H338.284V36.7273H339.011C340.284 33.2727 342.587 30.4697 345.92 28.3182C349.254 26.1667 353.011 25.0909 357.193 25.0909C357.981 25.0909 358.966 25.1061 360.148 25.1364C361.33 25.1667 362.223 25.2121 362.83 25.2727V36.1818C362.466 36.0909 361.633 35.9545 360.33 35.7727C359.057 35.5606 357.708 35.4545 356.284 35.4545C352.89 35.4545 349.86 36.1667 347.193 37.5909C344.557 38.9848 342.466 40.9242 340.92 43.4091C339.405 45.8636 338.648 48.6667 338.648 51.8182V96H327.92ZM461 41.8182L451.364 44.5455C450.758 42.9394 449.864 41.3788 448.682 39.8636C447.53 38.3182 445.955 37.0455 443.955 36.0455C441.955 35.0455 439.394 34.5455 436.273 34.5455C432 34.5455 428.439 35.5303 425.591 37.5C422.773 39.4394 421.364 41.9091 421.364 44.9091C421.364 47.5758 422.333 49.6818 424.273 51.2273C426.212 52.7727 429.242 54.0606 433.364 55.0909L443.727 57.6364C449.97 59.1515 454.621 61.4697 457.682 64.5909C460.742 67.6818 462.273 71.6667 462.273 76.5455C462.273 80.5455 461.121 84.1212 458.818 87.2727C456.545 90.4242 453.364 92.9091 449.273 94.7273C445.182 96.5455 440.424 97.4545 435 97.4545C427.879 97.4545 421.985 95.9091 417.318 92.8182C412.652 89.7273 409.697 85.2121 408.455 79.2727L418.636 76.7273C419.606 80.4848 421.439 83.303 424.136 85.1818C426.864 87.0606 430.424 88 434.818 88C439.818 88 443.788 86.9394 446.727 84.8182C449.697 82.6667 451.182 80.0909 451.182 77.0909C451.182 74.6667 450.333 72.6364 448.636 71C446.939 69.3333 444.333 68.0909 440.818 67.2727L429.182 64.5455C422.788 63.0303 418.091 60.6818 415.091 57.5C412.121 54.2879 410.636 50.2727 410.636 45.4545C410.636 41.5151 411.742 38.0303 413.955 35C416.197 31.9697 419.242 29.5909 423.091 27.8636C426.97 26.1364 431.364 25.2727 436.273 25.2727C443.182 25.2727 448.606 26.7879 452.545 29.8182C456.515 32.8485 459.333 36.8485 461 41.8182ZM508.784 26.1818V35.2727H472.602V26.1818H508.784ZM483.148 9.45454H493.875V76C493.875 79.0303 494.314 81.303 495.193 82.8182C496.102 84.303 497.254 85.303 498.648 85.8182C500.072 86.303 501.572 86.5455 503.148 86.5455C504.33 86.5455 505.299 86.4848 506.057 86.3636C506.814 86.2121 507.42 86.0909 507.875 86L510.057 95.6364C509.33 95.9091 508.314 96.1818 507.011 96.4545C505.708 96.7576 504.057 96.9091 502.057 96.9091C499.027 96.9091 496.057 96.2576 493.148 94.9545C490.269 93.6515 487.875 91.6667 485.966 89C484.087 86.3333 483.148 82.9697 483.148 78.9091V9.45454ZM568.92 67.4545V26.1818H579.648V96H568.92V84.1818H568.193C566.557 87.7273 564.011 90.7424 560.557 93.2273C557.102 95.6818 552.739 96.9091 547.466 96.9091C543.102 96.9091 539.223 95.9545 535.83 94.0455C532.436 92.1061 529.769 89.197 527.83 85.3182C525.89 81.4091 524.92 76.4848 524.92 70.5455V26.1818H535.648V69.8182C535.648 74.9091 537.072 78.9697 539.92 82C542.799 85.0303 546.466 86.5455 550.92 86.5455C553.587 86.5455 556.299 85.8636 559.057 84.5C561.845 83.1364 564.178 81.0455 566.057 78.2273C567.966 75.4091 568.92 71.8182 568.92 67.4545ZM625.659 97.4545C619.841 97.4545 614.705 95.9848 610.25 93.0455C605.795 90.0758 602.311 85.8939 599.795 80.5C597.28 75.0758 596.023 68.6667 596.023 61.2727C596.023 53.9394 597.28 47.5758 599.795 42.1818C602.311 36.7879 605.811 32.6212 610.295 29.6818C614.78 26.7424 619.962 25.2727 625.841 25.2727C630.386 25.2727 633.977 26.0303 636.614 27.5455C639.28 29.0303 641.311 30.7273 642.705 32.6364C644.129 34.5151 645.235 36.0606 646.023 37.2727H646.932V2.90909H657.659V96H647.295V85.2727H646.023C645.235 86.5455 644.114 88.1515 642.659 90.0909C641.205 92 639.129 93.7121 636.432 95.2273C633.735 96.7121 630.144 97.4545 625.659 97.4545ZM627.114 87.8182C631.417 87.8182 635.053 86.697 638.023 84.4545C640.992 82.1818 643.25 79.0455 644.795 75.0455C646.341 71.0152 647.114 66.3636 647.114 61.0909C647.114 55.8788 646.356 51.3182 644.841 47.4091C643.326 43.4697 641.083 40.4091 638.114 38.2273C635.144 36.0151 631.477 34.9091 627.114 34.9091C622.568 34.9091 618.78 36.0758 615.75 38.4091C612.75 40.7121 610.492 43.8485 608.977 47.8182C607.492 51.7576 606.75 56.1818 606.75 61.0909C606.75 66.0606 607.508 70.5758 609.023 74.6364C610.568 78.6667 612.841 81.8788 615.841 84.2727C618.871 86.6364 622.629 87.8182 627.114 87.8182ZM678.795 96V26.1818H689.523V96H678.795ZM684.25 14.5455C682.159 14.5455 680.356 13.8333 678.841 12.4091C677.356 10.9848 676.614 9.27273 676.614 7.27273C676.614 5.27273 677.356 3.56061 678.841 2.13636C680.356 0.71212 682.159 0 684.25 0C686.341 0 688.129 0.71212 689.614 2.13636C691.129 3.56061 691.886 5.27273 691.886 7.27273C691.886 9.27273 691.129 10.9848 689.614 12.4091C688.129 13.8333 686.341 14.5455 684.25 14.5455ZM737.534 97.4545C731.231 97.4545 725.701 95.9545 720.943 92.9545C716.216 89.9545 712.519 85.7576 709.852 80.3636C707.216 74.9697 705.898 68.6667 705.898 61.4545C705.898 54.1818 707.216 47.8333 709.852 42.4091C712.519 36.9848 716.216 32.7727 720.943 29.7727C725.701 26.7727 731.231 25.2727 737.534 25.2727C743.837 25.2727 749.352 26.7727 754.08 29.7727C758.837 32.7727 762.534 36.9848 765.17 42.4091C767.837 47.8333 769.17 54.1818 769.17 61.4545C769.17 68.6667 767.837 74.9697 765.17 80.3636C762.534 85.7576 758.837 89.9545 754.08 92.9545C749.352 95.9545 743.837 97.4545 737.534 97.4545ZM737.534 87.8182C742.322 87.8182 746.261 86.5909 749.352 84.1364C752.443 81.6818 754.731 78.4545 756.216 74.4545C757.701 70.4545 758.443 66.1212 758.443 61.4545C758.443 56.7879 757.701 52.4394 756.216 48.4091C754.731 44.3788 752.443 41.1212 749.352 38.6364C746.261 36.1515 742.322 34.9091 737.534 34.9091C732.746 34.9091 728.807 36.1515 725.716 38.6364C722.625 41.1212 720.337 44.3788 718.852 48.4091C717.367 52.4394 716.625 56.7879 716.625 61.4545C716.625 66.1212 717.367 70.4545 718.852 74.4545C720.337 78.4545 722.625 81.6818 725.716 84.1364C728.807 86.5909 732.746 87.8182 737.534 87.8182Z" fill="white"/>
</svg>
