<svg width="792" height="120" viewBox="0 0 792 120" fill="none" xmlns="http://www.w3.org/2000/svg">
<g opacity="0.5" filter="url(#filter0_f_1_2)">
<mask id="path-1-outside-1_1_2" maskUnits="userSpaceOnUse" x="9.72726" y="9.63636" width="772" height="100" fill="black">
<rect fill="white" x="9.72726" y="9.63636" width="772" height="100"/>
<path d="M11 12.6364V105.727H43.5454C50.0303 105.727 55.3788 104.606 59.5909 102.364C63.803 100.152 66.9394 97.1667 69 93.4091C71.0606 89.6818 72.0909 85.5455 72.0909 81C72.0909 77 71.3788 73.697 69.9545 71.0909C68.5606 68.4849 66.7121 66.4242 64.4091 64.9091C62.1364 63.3939 59.6667 62.2727 57 61.5455V60.6364C59.8485 60.4545 62.7121 59.4545 65.5909 57.6364C68.4697 55.8182 70.8788 53.2121 72.8182 49.8182C74.7576 46.4242 75.7273 42.2727 75.7273 37.3636C75.7273 32.697 74.6667 28.5 72.5454 24.7727C70.4242 21.0455 67.0758 18.0909 62.5 15.9091C57.9242 13.7273 51.9697 12.6364 44.6364 12.6364H11ZM22.2727 22.6364H44.6364C52 22.6364 57.2273 24.0606 60.3182 26.9091C63.4394 29.7879 65 33.2727 65 37.3636C65 40.5152 64.197 43.4242 62.5909 46.0909C60.9848 48.7879 58.697 50.9394 55.7273 52.5455C52.7576 54.1818 49.2424 55 45.1818 55H22.2727V22.6364ZM22.2727 64.8182H43.1818C46.5758 64.8182 49.6364 65.4849 52.3636 66.8182C55.1212 68.1515 57.303 70.0303 58.9091 72.4545C60.5454 74.8788 61.3636 77.7273 61.3636 81C61.3636 85.0909 59.9394 88.5606 57.0909 91.4091C54.2424 94.2879 49.7273 95.7273 43.5454 95.7273H22.2727V64.8182ZM113.341 11C108.917 11 104.902 11.8333 101.295 13.5C97.6894 15.197 94.8257 17.6364 92.7045 20.8182C90.5833 24.0303 89.5227 27.9091 89.5227 32.4545C89.5227 36.4545 90.3106 39.697 91.8864 42.1818C93.4621 44.697 95.5682 46.6667 98.2045 48.0909C100.841 49.5152 103.75 50.5758 106.932 51.2727C110.144 52 113.371 52.5758 116.614 53C120.856 53.5455 124.295 53.9545 126.932 54.2273C129.598 54.5303 131.538 55.0303 132.75 55.7273C133.992 56.4242 134.614 57.6364 134.614 59.3636V59.7273C134.614 64.2121 133.386 67.697 130.932 70.1818C128.508 72.6667 124.826 73.9091 119.886 73.9091C114.765 73.9091 110.75 72.7879 107.841 70.5455C104.932 68.303 102.886 65.9091 101.705 63.3636L91.5227 67C93.3409 71.2424 95.7651 74.5455 98.7954 76.9091C101.856 79.303 105.189 80.9697 108.795 81.9091C112.432 82.8788 116.008 83.3636 119.523 83.3636C121.765 83.3636 124.341 83.0909 127.25 82.5455C130.189 82.0303 133.023 80.9546 135.75 79.3182C138.508 77.6818 140.795 75.2121 142.614 71.9091C144.432 68.6061 145.341 64.1818 145.341 58.6364V12.6364H134.614V22.0909H134.068C133.341 20.5758 132.129 18.9545 130.432 17.2273C128.735 15.5 126.477 14.0303 123.659 12.8182C120.841 11.6061 117.402 11 113.341 11ZM114.977 20.6364C119.22 20.6364 122.795 21.4697 125.705 23.1364C128.644 24.803 130.856 26.9545 132.341 29.5909C133.856 32.2273 134.614 35 134.614 37.9091V47.7273C134.159 47.1818 133.159 46.6818 131.614 46.2273C130.098 45.803 128.341 45.4242 126.341 45.0909C124.371 44.7879 122.447 44.5152 120.568 44.2727C118.72 44.0606 117.22 43.8788 116.068 43.7273C113.28 43.3636 110.674 42.7727 108.25 41.9545C105.856 41.1667 103.917 39.9697 102.432 38.3636C100.977 36.7879 100.25 34.6364 100.25 31.9091C100.25 28.1818 101.629 25.3636 104.386 23.4545C107.174 21.5758 110.705 20.6364 114.977 20.6364ZM175.648 105.727V12.6364H164.92V105.727H175.648ZM223.659 11.1818C217.114 11.1818 211.477 12.7273 206.75 15.8182C202.023 18.9091 198.386 23.1667 195.841 28.5909C193.295 34.0152 192.023 40.2121 192.023 47.1818C192.023 54.2727 193.326 60.5303 195.932 65.9545C198.568 71.4091 202.235 75.6667 206.932 78.7273C211.659 81.8182 217.174 83.3636 223.477 83.3636C228.386 83.3636 232.811 82.4545 236.75 80.6364C240.689 78.8182 243.917 76.2727 246.432 73C248.947 69.7273 250.508 65.9091 251.114 61.5455H240.386C239.568 64.7273 237.75 67.5455 234.932 70C232.144 72.4849 228.386 73.7273 223.659 73.7273C219.477 73.7273 215.811 72.6364 212.659 70.4545C209.538 68.303 207.098 65.2576 205.341 61.3182C203.614 57.4091 202.75 52.8182 202.75 47.5455C202.75 42.1515 203.598 37.4545 205.295 33.4545C207.023 29.4545 209.447 26.3485 212.568 24.1364C215.72 21.9242 219.417 20.8182 223.659 20.8182C226.447 20.8182 228.977 21.303 231.25 22.2727C233.523 23.2424 235.447 24.6364 237.023 26.4545C238.598 28.2727 239.72 30.4545 240.386 33H251.114C250.508 28.8788 249.008 25.1667 246.614 21.8636C244.25 18.5909 241.114 15.9848 237.205 14.0455C233.326 12.1364 228.811 11.1818 223.659 11.1818ZM287.341 11C282.917 11 278.902 11.8333 275.295 13.5C271.689 15.197 268.826 17.6364 266.705 20.8182C264.583 24.0303 263.523 27.9091 263.523 32.4545C263.523 36.4545 264.311 39.697 265.886 42.1818C267.462 44.697 269.568 46.6667 272.205 48.0909C274.841 49.5152 277.75 50.5758 280.932 51.2727C284.144 52 287.371 52.5758 290.614 53C294.856 53.5455 298.295 53.9545 300.932 54.2273C303.598 54.5303 305.538 55.0303 306.75 55.7273C307.992 56.4242 308.614 57.6364 308.614 59.3636V59.7273C308.614 64.2121 307.386 67.697 304.932 70.1818C302.508 72.6667 298.826 73.9091 293.886 73.9091C288.765 73.9091 284.75 72.7879 281.841 70.5455C278.932 68.303 276.886 65.9091 275.705 63.3636L265.523 67C267.341 71.2424 269.765 74.5455 272.795 76.9091C275.856 79.303 279.189 80.9697 282.795 81.9091C286.432 82.8788 290.008 83.3636 293.523 83.3636C295.765 83.3636 298.341 83.0909 301.25 82.5455C304.189 82.0303 307.023 80.9546 309.75 79.3182C312.508 77.6818 314.795 75.2121 316.614 71.9091C318.432 68.6061 319.341 64.1818 319.341 58.6364V12.6364H308.614V22.0909H308.068C307.341 20.5758 306.129 18.9545 304.432 17.2273C302.735 15.5 300.477 14.0303 297.659 12.8182C294.841 11.6061 291.402 11 287.341 11ZM288.977 20.6364C293.22 20.6364 296.795 21.4697 299.705 23.1364C302.644 24.803 304.856 26.9545 306.341 29.5909C307.856 32.2273 308.614 35 308.614 37.9091V47.7273C308.159 47.1818 307.159 46.6818 305.614 46.2273C304.098 45.803 302.341 45.4242 300.341 45.0909C298.371 44.7879 296.447 44.5152 294.568 44.2727C292.72 44.0606 291.22 43.8788 290.068 43.7273C287.28 43.3636 284.674 42.7727 282.25 41.9545C279.856 41.1667 277.917 39.9697 276.432 38.3636C274.977 36.7879 274.25 34.6364 274.25 31.9091C274.25 28.1818 275.629 25.3636 278.386 23.4545C281.174 21.5758 284.705 20.6364 288.977 20.6364ZM338.92 12.6364V82.4545H349.284V71.9091H350.011C351.284 75.3636 353.587 78.1667 356.92 80.3182C360.254 82.4697 364.011 83.5455 368.193 83.5455C368.981 83.5455 369.966 83.5303 371.148 83.5C372.33 83.4697 373.223 83.4242 373.83 83.3636V72.4545C373.466 72.5455 372.633 72.6818 371.33 72.8636C370.057 73.0758 368.708 73.1818 367.284 73.1818C363.89 73.1818 360.86 72.4697 358.193 71.0455C355.557 69.6515 353.466 67.7121 351.92 65.2273C350.405 62.7727 349.648 59.9697 349.648 56.8182V12.6364H338.92ZM472 66.8182L462.364 64.0909C461.758 65.697 460.864 67.2576 459.682 68.7727C458.53 70.3182 456.955 71.5909 454.955 72.5909C452.955 73.5909 450.394 74.0909 447.273 74.0909C443 74.0909 439.439 73.1061 436.591 71.1364C433.773 69.197 432.364 66.7273 432.364 63.7273C432.364 61.0606 433.333 58.9545 435.273 57.4091C437.212 55.8636 440.242 54.5758 444.364 53.5455L454.727 51C460.97 49.4849 465.621 47.1667 468.682 44.0455C471.742 40.9545 473.273 36.9697 473.273 32.0909C473.273 28.0909 472.121 24.5152 469.818 21.3636C467.545 18.2121 464.364 15.7273 460.273 13.9091C456.182 12.0909 451.424 11.1818 446 11.1818C438.879 11.1818 432.985 12.7273 428.318 15.8182C423.652 18.9091 420.697 23.4242 419.455 29.3636L429.636 31.9091C430.606 28.1515 432.439 25.3333 435.136 23.4545C437.864 21.5758 441.424 20.6364 445.818 20.6364C450.818 20.6364 454.788 21.697 457.727 23.8182C460.697 25.9697 462.182 28.5455 462.182 31.5455C462.182 33.9697 461.333 36 459.636 37.6364C457.939 39.303 455.333 40.5455 451.818 41.3636L440.182 44.0909C433.788 45.6061 429.091 47.9545 426.091 51.1364C423.121 54.3485 421.636 58.3636 421.636 63.1818C421.636 67.1212 422.742 70.6061 424.955 73.6364C427.197 76.6667 430.242 79.0455 434.091 80.7727C437.97 82.5 442.364 83.3636 447.273 83.3636C454.182 83.3636 459.606 81.8485 463.545 78.8182C467.515 75.7879 470.333 71.7879 472 66.8182ZM519.784 82.4545V73.3636H483.602V82.4545H519.784ZM494.148 99.1818H504.875V32.6364C504.875 29.6061 505.314 27.3333 506.193 25.8182C507.102 24.3333 508.254 23.3333 509.648 22.8182C511.072 22.3333 512.572 22.0909 514.148 22.0909C515.33 22.0909 516.299 22.1515 517.057 22.2727C517.814 22.4242 518.42 22.5455 518.875 22.6364L521.057 13C520.33 12.7273 519.314 12.4545 518.011 12.1818C516.708 11.8788 515.057 11.7273 513.057 11.7273C510.027 11.7273 507.057 12.3788 504.148 13.6818C501.269 14.9848 498.875 16.9697 496.966 19.6364C495.087 22.303 494.148 25.6667 494.148 29.7273V99.1818ZM579.92 41.1818V82.4545H590.648V12.6364H579.92V24.4545H579.193C577.557 20.9091 575.011 17.8939 571.557 15.4091C568.102 12.9545 563.739 11.7273 558.466 11.7273C554.102 11.7273 550.223 12.6818 546.83 14.5909C543.436 16.5303 540.769 19.4394 538.83 23.3182C536.89 27.2273 535.92 32.1515 535.92 38.0909V82.4545H546.648V38.8182C546.648 33.7273 548.072 29.6667 550.92 26.6364C553.799 23.6061 557.466 22.0909 561.92 22.0909C564.587 22.0909 567.299 22.7727 570.057 24.1364C572.845 25.5 575.178 27.5909 577.057 30.4091C578.966 33.2273 579.92 36.8182 579.92 41.1818ZM636.659 11.1818C630.841 11.1818 625.705 12.6515 621.25 15.5909C616.795 18.5606 613.311 22.7424 610.795 28.1364C608.28 33.5606 607.023 39.9697 607.023 47.3636C607.023 54.697 608.28 61.0606 610.795 66.4545C613.311 71.8485 616.811 76.0152 621.295 78.9545C625.78 81.8939 630.962 83.3636 636.841 83.3636C641.386 83.3636 644.977 82.6061 647.614 81.0909C650.28 79.6061 652.311 77.9091 653.705 76C655.129 74.1212 656.235 72.5758 657.023 71.3636H657.932V105.727H668.659V12.6364H658.295V23.3636H657.023C656.235 22.0909 655.114 20.4848 653.659 18.5455C652.205 16.6364 650.129 14.9242 647.432 13.4091C644.735 11.9242 641.144 11.1818 636.659 11.1818ZM638.114 20.8182C642.417 20.8182 646.053 21.9394 649.023 24.1818C651.992 26.4545 654.25 29.5909 655.795 33.5909C657.341 37.6212 658.114 42.2727 658.114 47.5455C658.114 52.7576 657.356 57.3182 655.841 61.2273C654.326 65.1667 652.083 68.2273 649.114 70.4091C646.144 72.6212 642.477 73.7273 638.114 73.7273C633.568 73.7273 629.78 72.5606 626.75 70.2273C623.75 67.9242 621.492 64.7879 619.977 60.8182C618.492 56.8788 617.75 52.4545 617.75 47.5455C617.75 42.5758 618.508 38.0606 620.023 34C621.568 29.9697 623.841 26.7576 626.841 24.3636C629.871 22 633.629 20.8182 638.114 20.8182ZM689.795 12.6364V82.4545H700.523V12.6364H689.795ZM695.25 94.0909C693.159 94.0909 691.356 94.803 689.841 96.2273C688.356 97.6515 687.614 99.3636 687.614 101.364C687.614 103.364 688.356 105.076 689.841 106.5C691.356 107.924 693.159 108.636 695.25 108.636C697.341 108.636 699.129 107.924 700.614 106.5C702.129 105.076 702.886 103.364 702.886 101.364C702.886 99.3636 702.129 97.6515 700.614 96.2273C699.129 94.803 697.341 94.0909 695.25 94.0909ZM748.534 11.1818C742.231 11.1818 736.701 12.6818 731.943 15.6818C727.216 18.6818 723.519 22.8788 720.852 28.2727C718.216 33.6667 716.898 39.9697 716.898 47.1818C716.898 54.4545 718.216 60.803 720.852 66.2273C723.519 71.6515 727.216 75.8636 731.943 78.8636C736.701 81.8636 742.231 83.3636 748.534 83.3636C754.837 83.3636 760.352 81.8636 765.08 78.8636C769.837 75.8636 773.534 71.6515 776.17 66.2273C778.837 60.803 780.17 54.4545 780.17 47.1818C780.17 39.9697 778.837 33.6667 776.17 28.2727C773.534 22.8788 769.837 18.6818 765.08 15.6818C760.352 12.6818 754.837 11.1818 748.534 11.1818ZM748.534 20.8182C753.322 20.8182 757.261 22.0455 760.352 24.5C763.443 26.9545 765.731 30.1818 767.216 34.1818C768.701 38.1818 769.443 42.5152 769.443 47.1818C769.443 51.8485 768.701 56.197 767.216 60.2273C765.731 64.2576 763.443 67.5152 760.352 70C757.261 72.4849 753.322 73.7273 748.534 73.7273C743.746 73.7273 739.807 72.4849 736.716 70C733.625 67.5152 731.337 64.2576 729.852 60.2273C728.367 56.197 727.625 51.8485 727.625 47.1818C727.625 42.5152 728.367 38.1818 729.852 34.1818C731.337 30.1818 733.625 26.9545 736.716 24.5C739.807 22.0455 743.746 20.8182 748.534 20.8182Z"/>
</mask>
<path d="M11 12.6364V105.727H43.5454C50.0303 105.727 55.3788 104.606 59.5909 102.364C63.803 100.152 66.9394 97.1667 69 93.4091C71.0606 89.6818 72.0909 85.5455 72.0909 81C72.0909 77 71.3788 73.697 69.9545 71.0909C68.5606 68.4849 66.7121 66.4242 64.4091 64.9091C62.1364 63.3939 59.6667 62.2727 57 61.5455V60.6364C59.8485 60.4545 62.7121 59.4545 65.5909 57.6364C68.4697 55.8182 70.8788 53.2121 72.8182 49.8182C74.7576 46.4242 75.7273 42.2727 75.7273 37.3636C75.7273 32.697 74.6667 28.5 72.5454 24.7727C70.4242 21.0455 67.0758 18.0909 62.5 15.9091C57.9242 13.7273 51.9697 12.6364 44.6364 12.6364H11ZM22.2727 22.6364H44.6364C52 22.6364 57.2273 24.0606 60.3182 26.9091C63.4394 29.7879 65 33.2727 65 37.3636C65 40.5152 64.197 43.4242 62.5909 46.0909C60.9848 48.7879 58.697 50.9394 55.7273 52.5455C52.7576 54.1818 49.2424 55 45.1818 55H22.2727V22.6364ZM22.2727 64.8182H43.1818C46.5758 64.8182 49.6364 65.4849 52.3636 66.8182C55.1212 68.1515 57.303 70.0303 58.9091 72.4545C60.5454 74.8788 61.3636 77.7273 61.3636 81C61.3636 85.0909 59.9394 88.5606 57.0909 91.4091C54.2424 94.2879 49.7273 95.7273 43.5454 95.7273H22.2727V64.8182ZM113.341 11C108.917 11 104.902 11.8333 101.295 13.5C97.6894 15.197 94.8257 17.6364 92.7045 20.8182C90.5833 24.0303 89.5227 27.9091 89.5227 32.4545C89.5227 36.4545 90.3106 39.697 91.8864 42.1818C93.4621 44.697 95.5682 46.6667 98.2045 48.0909C100.841 49.5152 103.75 50.5758 106.932 51.2727C110.144 52 113.371 52.5758 116.614 53C120.856 53.5455 124.295 53.9545 126.932 54.2273C129.598 54.5303 131.538 55.0303 132.75 55.7273C133.992 56.4242 134.614 57.6364 134.614 59.3636V59.7273C134.614 64.2121 133.386 67.697 130.932 70.1818C128.508 72.6667 124.826 73.9091 119.886 73.9091C114.765 73.9091 110.75 72.7879 107.841 70.5455C104.932 68.303 102.886 65.9091 101.705 63.3636L91.5227 67C93.3409 71.2424 95.7651 74.5455 98.7954 76.9091C101.856 79.303 105.189 80.9697 108.795 81.9091C112.432 82.8788 116.008 83.3636 119.523 83.3636C121.765 83.3636 124.341 83.0909 127.25 82.5455C130.189 82.0303 133.023 80.9546 135.75 79.3182C138.508 77.6818 140.795 75.2121 142.614 71.9091C144.432 68.6061 145.341 64.1818 145.341 58.6364V12.6364H134.614V22.0909H134.068C133.341 20.5758 132.129 18.9545 130.432 17.2273C128.735 15.5 126.477 14.0303 123.659 12.8182C120.841 11.6061 117.402 11 113.341 11ZM114.977 20.6364C119.22 20.6364 122.795 21.4697 125.705 23.1364C128.644 24.803 130.856 26.9545 132.341 29.5909C133.856 32.2273 134.614 35 134.614 37.9091V47.7273C134.159 47.1818 133.159 46.6818 131.614 46.2273C130.098 45.803 128.341 45.4242 126.341 45.0909C124.371 44.7879 122.447 44.5152 120.568 44.2727C118.72 44.0606 117.22 43.8788 116.068 43.7273C113.28 43.3636 110.674 42.7727 108.25 41.9545C105.856 41.1667 103.917 39.9697 102.432 38.3636C100.977 36.7879 100.25 34.6364 100.25 31.9091C100.25 28.1818 101.629 25.3636 104.386 23.4545C107.174 21.5758 110.705 20.6364 114.977 20.6364ZM175.648 105.727V12.6364H164.92V105.727H175.648ZM223.659 11.1818C217.114 11.1818 211.477 12.7273 206.75 15.8182C202.023 18.9091 198.386 23.1667 195.841 28.5909C193.295 34.0152 192.023 40.2121 192.023 47.1818C192.023 54.2727 193.326 60.5303 195.932 65.9545C198.568 71.4091 202.235 75.6667 206.932 78.7273C211.659 81.8182 217.174 83.3636 223.477 83.3636C228.386 83.3636 232.811 82.4545 236.75 80.6364C240.689 78.8182 243.917 76.2727 246.432 73C248.947 69.7273 250.508 65.9091 251.114 61.5455H240.386C239.568 64.7273 237.75 67.5455 234.932 70C232.144 72.4849 228.386 73.7273 223.659 73.7273C219.477 73.7273 215.811 72.6364 212.659 70.4545C209.538 68.303 207.098 65.2576 205.341 61.3182C203.614 57.4091 202.75 52.8182 202.75 47.5455C202.75 42.1515 203.598 37.4545 205.295 33.4545C207.023 29.4545 209.447 26.3485 212.568 24.1364C215.72 21.9242 219.417 20.8182 223.659 20.8182C226.447 20.8182 228.977 21.303 231.25 22.2727C233.523 23.2424 235.447 24.6364 237.023 26.4545C238.598 28.2727 239.72 30.4545 240.386 33H251.114C250.508 28.8788 249.008 25.1667 246.614 21.8636C244.25 18.5909 241.114 15.9848 237.205 14.0455C233.326 12.1364 228.811 11.1818 223.659 11.1818ZM287.341 11C282.917 11 278.902 11.8333 275.295 13.5C271.689 15.197 268.826 17.6364 266.705 20.8182C264.583 24.0303 263.523 27.9091 263.523 32.4545C263.523 36.4545 264.311 39.697 265.886 42.1818C267.462 44.697 269.568 46.6667 272.205 48.0909C274.841 49.5152 277.75 50.5758 280.932 51.2727C284.144 52 287.371 52.5758 290.614 53C294.856 53.5455 298.295 53.9545 300.932 54.2273C303.598 54.5303 305.538 55.0303 306.75 55.7273C307.992 56.4242 308.614 57.6364 308.614 59.3636V59.7273C308.614 64.2121 307.386 67.697 304.932 70.1818C302.508 72.6667 298.826 73.9091 293.886 73.9091C288.765 73.9091 284.75 72.7879 281.841 70.5455C278.932 68.303 276.886 65.9091 275.705 63.3636L265.523 67C267.341 71.2424 269.765 74.5455 272.795 76.9091C275.856 79.303 279.189 80.9697 282.795 81.9091C286.432 82.8788 290.008 83.3636 293.523 83.3636C295.765 83.3636 298.341 83.0909 301.25 82.5455C304.189 82.0303 307.023 80.9546 309.75 79.3182C312.508 77.6818 314.795 75.2121 316.614 71.9091C318.432 68.6061 319.341 64.1818 319.341 58.6364V12.6364H308.614V22.0909H308.068C307.341 20.5758 306.129 18.9545 304.432 17.2273C302.735 15.5 300.477 14.0303 297.659 12.8182C294.841 11.6061 291.402 11 287.341 11ZM288.977 20.6364C293.22 20.6364 296.795 21.4697 299.705 23.1364C302.644 24.803 304.856 26.9545 306.341 29.5909C307.856 32.2273 308.614 35 308.614 37.9091V47.7273C308.159 47.1818 307.159 46.6818 305.614 46.2273C304.098 45.803 302.341 45.4242 300.341 45.0909C298.371 44.7879 296.447 44.5152 294.568 44.2727C292.72 44.0606 291.22 43.8788 290.068 43.7273C287.28 43.3636 284.674 42.7727 282.25 41.9545C279.856 41.1667 277.917 39.9697 276.432 38.3636C274.977 36.7879 274.25 34.6364 274.25 31.9091C274.25 28.1818 275.629 25.3636 278.386 23.4545C281.174 21.5758 284.705 20.6364 288.977 20.6364ZM338.92 12.6364V82.4545H349.284V71.9091H350.011C351.284 75.3636 353.587 78.1667 356.92 80.3182C360.254 82.4697 364.011 83.5455 368.193 83.5455C368.981 83.5455 369.966 83.5303 371.148 83.5C372.33 83.4697 373.223 83.4242 373.83 83.3636V72.4545C373.466 72.5455 372.633 72.6818 371.33 72.8636C370.057 73.0758 368.708 73.1818 367.284 73.1818C363.89 73.1818 360.86 72.4697 358.193 71.0455C355.557 69.6515 353.466 67.7121 351.92 65.2273C350.405 62.7727 349.648 59.9697 349.648 56.8182V12.6364H338.92ZM472 66.8182L462.364 64.0909C461.758 65.697 460.864 67.2576 459.682 68.7727C458.53 70.3182 456.955 71.5909 454.955 72.5909C452.955 73.5909 450.394 74.0909 447.273 74.0909C443 74.0909 439.439 73.1061 436.591 71.1364C433.773 69.197 432.364 66.7273 432.364 63.7273C432.364 61.0606 433.333 58.9545 435.273 57.4091C437.212 55.8636 440.242 54.5758 444.364 53.5455L454.727 51C460.97 49.4849 465.621 47.1667 468.682 44.0455C471.742 40.9545 473.273 36.9697 473.273 32.0909C473.273 28.0909 472.121 24.5152 469.818 21.3636C467.545 18.2121 464.364 15.7273 460.273 13.9091C456.182 12.0909 451.424 11.1818 446 11.1818C438.879 11.1818 432.985 12.7273 428.318 15.8182C423.652 18.9091 420.697 23.4242 419.455 29.3636L429.636 31.9091C430.606 28.1515 432.439 25.3333 435.136 23.4545C437.864 21.5758 441.424 20.6364 445.818 20.6364C450.818 20.6364 454.788 21.697 457.727 23.8182C460.697 25.9697 462.182 28.5455 462.182 31.5455C462.182 33.9697 461.333 36 459.636 37.6364C457.939 39.303 455.333 40.5455 451.818 41.3636L440.182 44.0909C433.788 45.6061 429.091 47.9545 426.091 51.1364C423.121 54.3485 421.636 58.3636 421.636 63.1818C421.636 67.1212 422.742 70.6061 424.955 73.6364C427.197 76.6667 430.242 79.0455 434.091 80.7727C437.97 82.5 442.364 83.3636 447.273 83.3636C454.182 83.3636 459.606 81.8485 463.545 78.8182C467.515 75.7879 470.333 71.7879 472 66.8182ZM519.784 82.4545V73.3636H483.602V82.4545H519.784ZM494.148 99.1818H504.875V32.6364C504.875 29.6061 505.314 27.3333 506.193 25.8182C507.102 24.3333 508.254 23.3333 509.648 22.8182C511.072 22.3333 512.572 22.0909 514.148 22.0909C515.33 22.0909 516.299 22.1515 517.057 22.2727C517.814 22.4242 518.42 22.5455 518.875 22.6364L521.057 13C520.33 12.7273 519.314 12.4545 518.011 12.1818C516.708 11.8788 515.057 11.7273 513.057 11.7273C510.027 11.7273 507.057 12.3788 504.148 13.6818C501.269 14.9848 498.875 16.9697 496.966 19.6364C495.087 22.303 494.148 25.6667 494.148 29.7273V99.1818ZM579.92 41.1818V82.4545H590.648V12.6364H579.92V24.4545H579.193C577.557 20.9091 575.011 17.8939 571.557 15.4091C568.102 12.9545 563.739 11.7273 558.466 11.7273C554.102 11.7273 550.223 12.6818 546.83 14.5909C543.436 16.5303 540.769 19.4394 538.83 23.3182C536.89 27.2273 535.92 32.1515 535.92 38.0909V82.4545H546.648V38.8182C546.648 33.7273 548.072 29.6667 550.92 26.6364C553.799 23.6061 557.466 22.0909 561.92 22.0909C564.587 22.0909 567.299 22.7727 570.057 24.1364C572.845 25.5 575.178 27.5909 577.057 30.4091C578.966 33.2273 579.92 36.8182 579.92 41.1818ZM636.659 11.1818C630.841 11.1818 625.705 12.6515 621.25 15.5909C616.795 18.5606 613.311 22.7424 610.795 28.1364C608.28 33.5606 607.023 39.9697 607.023 47.3636C607.023 54.697 608.28 61.0606 610.795 66.4545C613.311 71.8485 616.811 76.0152 621.295 78.9545C625.78 81.8939 630.962 83.3636 636.841 83.3636C641.386 83.3636 644.977 82.6061 647.614 81.0909C650.28 79.6061 652.311 77.9091 653.705 76C655.129 74.1212 656.235 72.5758 657.023 71.3636H657.932V105.727H668.659V12.6364H658.295V23.3636H657.023C656.235 22.0909 655.114 20.4848 653.659 18.5455C652.205 16.6364 650.129 14.9242 647.432 13.4091C644.735 11.9242 641.144 11.1818 636.659 11.1818ZM638.114 20.8182C642.417 20.8182 646.053 21.9394 649.023 24.1818C651.992 26.4545 654.25 29.5909 655.795 33.5909C657.341 37.6212 658.114 42.2727 658.114 47.5455C658.114 52.7576 657.356 57.3182 655.841 61.2273C654.326 65.1667 652.083 68.2273 649.114 70.4091C646.144 72.6212 642.477 73.7273 638.114 73.7273C633.568 73.7273 629.78 72.5606 626.75 70.2273C623.75 67.9242 621.492 64.7879 619.977 60.8182C618.492 56.8788 617.75 52.4545 617.75 47.5455C617.75 42.5758 618.508 38.0606 620.023 34C621.568 29.9697 623.841 26.7576 626.841 24.3636C629.871 22 633.629 20.8182 638.114 20.8182ZM689.795 12.6364V82.4545H700.523V12.6364H689.795ZM695.25 94.0909C693.159 94.0909 691.356 94.803 689.841 96.2273C688.356 97.6515 687.614 99.3636 687.614 101.364C687.614 103.364 688.356 105.076 689.841 106.5C691.356 107.924 693.159 108.636 695.25 108.636C697.341 108.636 699.129 107.924 700.614 106.5C702.129 105.076 702.886 103.364 702.886 101.364C702.886 99.3636 702.129 97.6515 700.614 96.2273C699.129 94.803 697.341 94.0909 695.25 94.0909ZM748.534 11.1818C742.231 11.1818 736.701 12.6818 731.943 15.6818C727.216 18.6818 723.519 22.8788 720.852 28.2727C718.216 33.6667 716.898 39.9697 716.898 47.1818C716.898 54.4545 718.216 60.803 720.852 66.2273C723.519 71.6515 727.216 75.8636 731.943 78.8636C736.701 81.8636 742.231 83.3636 748.534 83.3636C754.837 83.3636 760.352 81.8636 765.08 78.8636C769.837 75.8636 773.534 71.6515 776.17 66.2273C778.837 60.803 780.17 54.4545 780.17 47.1818C780.17 39.9697 778.837 33.6667 776.17 28.2727C773.534 22.8788 769.837 18.6818 765.08 15.6818C760.352 12.6818 754.837 11.1818 748.534 11.1818ZM748.534 20.8182C753.322 20.8182 757.261 22.0455 760.352 24.5C763.443 26.9545 765.731 30.1818 767.216 34.1818C768.701 38.1818 769.443 42.5152 769.443 47.1818C769.443 51.8485 768.701 56.197 767.216 60.2273C765.731 64.2576 763.443 67.5152 760.352 70C757.261 72.4849 753.322 73.7273 748.534 73.7273C743.746 73.7273 739.807 72.4849 736.716 70C733.625 67.5152 731.337 64.2576 729.852 60.2273C728.367 56.197 727.625 51.8485 727.625 47.1818C727.625 42.5152 728.367 38.1818 729.852 34.1818C731.337 30.1818 733.625 26.9545 736.716 24.5C739.807 22.0455 743.746 20.8182 748.534 20.8182Z" fill="url(#paint0_linear_1_2)" fill-opacity="0.5"/>
<path d="M11 12.6364H9.99999V11.6364H11V12.6364ZM11 105.727V106.727H9.99999V105.727H11ZM59.5909 102.364L59.121 101.481L59.1259 101.478L59.5909 102.364ZM69 93.4091L68.1232 92.9283L68.1248 92.9253L69 93.4091ZM69.9545 71.0909L69.077 71.5705L69.0728 71.5626L69.9545 71.0909ZM64.4091 64.9091L63.8595 65.7445L63.8544 65.7411L64.4091 64.9091ZM57 61.5455L56.7369 62.5102L56 62.3093V61.5455H57ZM57 60.6364H56V59.6982L56.9363 59.6384L57 60.6364ZM65.5909 57.6364L65.0569 56.7909L65.0569 56.7909L65.5909 57.6364ZM72.5454 24.7727L73.4146 24.2781L73.4146 24.2781L72.5454 24.7727ZM62.5 15.9091L62.0696 16.8117L62.0696 16.8117L62.5 15.9091ZM22.2727 22.6364H21.2727V21.6364H22.2727V22.6364ZM60.3182 26.9091L60.9959 26.1737L60.9962 26.174L60.3182 26.9091ZM62.5909 46.0909L61.7317 45.5793L61.7343 45.575L62.5909 46.0909ZM55.7273 52.5455L55.2446 51.6696L55.2516 51.6659L55.7273 52.5455ZM22.2727 55V56H21.2727V55H22.2727ZM22.2727 64.8182H21.2727V63.8182H22.2727V64.8182ZM52.3636 66.8182L51.9283 67.7185L51.9244 67.7166L52.3636 66.8182ZM58.9091 72.4545L58.0802 73.014L58.0754 73.0068L58.9091 72.4545ZM57.0909 91.4091L56.3801 90.7057L56.3838 90.702L57.0909 91.4091ZM22.2727 95.7273V96.7273H21.2727V95.7273H22.2727ZM11 12.6364H12V105.727H11H9.99999V12.6364H11ZM11 105.727V104.727H43.5454V105.727V106.727H11V105.727ZM43.5454 105.727V104.727C49.9225 104.727 55.0961 103.624 59.121 101.481L59.5909 102.364L60.0608 103.246C55.6615 105.588 50.1381 106.727 43.5454 106.727V105.727ZM59.5909 102.364L59.1259 101.478C63.1839 99.3471 66.1674 96.4947 68.1232 92.9283L69 93.4091L69.8768 93.8899C67.7114 97.8386 64.4221 100.956 60.0559 103.249L59.5909 102.364ZM69 93.4091L68.1248 92.9253C70.0981 89.3561 71.0909 85.388 71.0909 81H72.0909H73.0909C73.0909 85.703 72.0231 90.0076 69.8752 93.8929L69 93.4091ZM72.0909 81H71.0909C71.0909 77.1118 70.3978 73.9873 69.077 71.5705L69.9545 71.0909L70.832 70.6113C72.3597 73.4067 73.0909 76.8882 73.0909 81H72.0909ZM69.9545 71.0909L69.0728 71.5626C67.7516 69.0926 66.0132 67.1614 63.8595 65.7445L64.4091 64.9091L64.9587 64.0737C67.411 65.6871 69.3696 67.8771 70.8363 70.6193L69.9545 71.0909ZM64.4091 64.9091L63.8544 65.7411C61.6722 64.2863 59.3011 63.2096 56.7369 62.5102L57 61.5455L57.2631 60.5807C60.0322 61.3359 62.6005 62.5016 64.9638 64.077L64.4091 64.9091ZM57 61.5455H56V60.6364H57H58V61.5455H57ZM57 60.6364L56.9363 59.6384C59.5883 59.4691 62.2924 58.5369 65.0569 56.7909L65.5909 57.6364L66.1249 58.4819C63.1318 60.3722 60.1087 61.44 57.0637 61.6343L57 60.6364ZM65.5909 57.6364L65.0569 56.7909C67.7781 55.0722 70.0796 52.5951 71.9499 49.322L72.8182 49.8182L73.6864 50.3143C71.678 53.8291 69.1613 56.5642 66.1249 58.4819L65.5909 57.6364ZM72.8182 49.8182L71.9499 49.322C73.7835 46.1132 74.7273 42.1426 74.7273 37.3636H75.7273H76.7273C76.7273 42.4029 75.7316 46.7353 73.6864 50.3143L72.8182 49.8182ZM75.7273 37.3636H74.7273C74.7273 32.8547 73.7043 28.8308 71.6763 25.2673L72.5454 24.7727L73.4146 24.2781C75.629 28.1692 76.7273 32.5393 76.7273 37.3636H75.7273ZM72.5454 24.7727L71.6763 25.2673C69.6736 21.7482 66.4953 18.922 62.0696 16.8117L62.5 15.9091L62.9304 15.0065C67.6562 17.2598 71.1749 20.3427 73.4146 24.2781L72.5454 24.7727ZM62.5 15.9091L62.0696 16.8117C57.6745 14.7161 51.8823 13.6364 44.6364 13.6364V12.6364V11.6364C52.0571 11.6364 58.1739 12.7385 62.9304 15.0065L62.5 15.9091ZM44.6364 12.6364V13.6364H11V12.6364V11.6364H44.6364V12.6364ZM22.2727 22.6364V21.6364H44.6364V22.6364V23.6364H22.2727V22.6364ZM44.6364 22.6364V21.6364C52.0786 21.6364 57.6238 23.0662 60.9959 26.1737L60.3182 26.9091L59.6405 27.6444C56.8307 25.055 51.9214 23.6364 44.6364 23.6364V22.6364ZM60.3182 26.9091L60.9962 26.174C64.3138 29.234 66 32.9817 66 37.3636H65H64C64 33.5637 62.5649 30.3418 59.6402 27.6442L60.3182 26.9091ZM65 37.3636H66C66 40.6946 65.1486 43.7824 63.4475 46.6068L62.5909 46.0909L61.7343 45.575C63.2453 43.0661 64 40.3357 64 37.3636H65ZM62.5909 46.0909L63.4501 46.6026C61.7448 49.4662 59.3189 51.7399 56.203 53.4251L55.7273 52.5455L55.2516 51.6659C58.075 50.1389 60.2249 48.1095 61.7317 45.5793L62.5909 46.0909ZM55.7273 52.5455L56.2099 53.4213C53.0657 55.1538 49.3779 56 45.1818 56V55V54C49.1069 54 52.4494 53.2099 55.2447 51.6696L55.7273 52.5455ZM45.1818 55V56H22.2727V55V54H45.1818V55ZM22.2727 55H21.2727V22.6364H22.2727H23.2727V55H22.2727ZM22.2727 64.8182V63.8182H43.1818V64.8182V65.8182H22.2727V64.8182ZM43.1818 64.8182V63.8182C46.7099 63.8182 49.9234 64.5121 52.8028 65.9198L52.3636 66.8182L51.9244 67.7166C49.3493 66.4576 46.4417 65.8182 43.1818 65.8182V64.8182ZM52.3636 66.8182L52.7989 65.9179C55.7091 67.325 58.0322 69.3203 59.7427 71.9023L58.9091 72.4545L58.0754 73.0068C56.5739 70.7403 54.5333 68.978 51.9283 67.7185L52.3636 66.8182ZM58.9091 72.4545L59.7379 71.8951C61.4989 74.5039 62.3636 77.5525 62.3636 81H61.3636H60.3636C60.3636 77.902 59.592 75.2537 58.0802 73.014L58.9091 72.4545ZM61.3636 81H62.3636C62.3636 85.3515 60.8373 89.0769 57.798 92.1162L57.0909 91.4091L56.3838 90.702C59.0415 88.0443 60.3636 84.8303 60.3636 81H61.3636ZM57.0909 91.4091L57.8017 92.1124C54.6865 95.2608 49.8561 96.7273 43.5454 96.7273V95.7273V94.7273C49.5984 94.7273 53.7983 93.315 56.3801 90.7057L57.0909 91.4091ZM43.5454 95.7273V96.7273H22.2727V95.7273V94.7273H43.5454V95.7273ZM22.2727 95.7273H21.2727V64.8182H22.2727H23.2727V95.7273H22.2727ZM101.295 13.5L100.87 12.5952L100.876 12.5923L101.295 13.5ZM92.7045 20.8182L91.8701 20.2671L91.8725 20.2635L92.7045 20.8182ZM91.8864 42.1818L92.7309 41.6463L92.7338 41.6509L91.8864 42.1818ZM106.932 51.2727L107.146 50.2959L107.153 50.2974L106.932 51.2727ZM116.614 53L116.486 53.9918L116.484 53.9915L116.614 53ZM126.932 54.2273L127.035 53.2325L127.045 53.2337L126.932 54.2273ZM132.75 55.7273L132.261 56.5995L132.252 56.5942L132.75 55.7273ZM130.932 70.1818L130.216 69.4835L130.22 69.4791L130.932 70.1818ZM107.841 70.5455L108.451 69.7534L108.451 69.7534L107.841 70.5455ZM101.705 63.3636L101.368 62.4219L102.227 62.1151L102.612 62.9425L101.705 63.3636ZM91.5227 67L90.6036 67.3939L90.1845 66.4161L91.1864 66.0583L91.5227 67ZM98.7954 76.9091L99.4105 76.1206L99.4115 76.1214L98.7954 76.9091ZM108.795 81.9091L109.048 80.9414L109.053 80.9429L108.795 81.9091ZM127.25 82.5455L127.066 81.5625L127.077 81.5605L127.25 82.5455ZM135.75 79.3182L135.235 78.4607L135.24 78.4582L135.75 79.3182ZM142.614 71.9091L141.738 71.4269L141.738 71.4269L142.614 71.9091ZM145.341 12.6364V11.6364H146.341V12.6364H145.341ZM134.614 12.6364H133.614V11.6364H134.614V12.6364ZM134.614 22.0909H135.614V23.0909H134.614V22.0909ZM134.068 22.0909V23.0909H133.439L133.167 22.5236L134.068 22.0909ZM130.432 17.2273L131.145 16.5265L131.145 16.5265L130.432 17.2273ZM123.659 12.8182L123.264 13.7368L123.264 13.7368L123.659 12.8182ZM125.705 23.1364L125.211 24.0063L125.207 24.0041L125.705 23.1364ZM132.341 29.5909L131.474 30.0892L131.47 30.0816L132.341 29.5909ZM134.614 47.7273H135.614V50.4893L133.845 48.3675L134.614 47.7273ZM131.614 46.2273L131.883 45.2642L131.896 45.2679L131.614 46.2273ZM126.341 45.0909L126.493 44.1025L126.505 44.1045L126.341 45.0909ZM120.568 44.2727L120.682 43.2791L120.696 43.281L120.568 44.2727ZM116.068 43.7273L116.198 42.7357L116.199 42.7358L116.068 43.7273ZM108.25 41.9545L108.563 41.0046L108.57 41.0071L108.25 41.9545ZM102.432 38.3636L101.698 39.0425L101.697 39.0419L102.432 38.3636ZM104.386 23.4545L103.817 22.6323L103.828 22.6253L104.386 23.4545ZM113.341 11V12C109.045 12 105.175 12.8084 101.715 14.4077L101.295 13.5L100.876 12.5923C104.628 10.8582 108.788 10 113.341 10V11ZM101.295 13.5L101.721 14.4048C98.2727 16.0277 95.5524 18.3491 93.5366 21.3729L92.7045 20.8182L91.8725 20.2635C94.0991 16.9236 97.1061 14.3663 100.87 12.5952L101.295 13.5ZM92.7045 20.8182L93.539 21.3692C91.5441 24.3901 90.5227 28.0689 90.5227 32.4545H89.5227H88.5227C88.5227 27.7493 89.6226 23.6705 91.8701 20.2671L92.7045 20.8182ZM89.5227 32.4545H90.5227C90.5227 36.3309 91.287 39.3695 92.7309 41.6463L91.8864 42.1818L91.0418 42.7174C89.3342 40.0245 88.5227 36.5782 88.5227 32.4545H89.5227ZM91.8864 42.1818L92.7338 41.6509C94.2168 44.0181 96.1941 45.8682 98.6798 47.2111L98.2045 48.0909L97.7292 48.9707C94.9423 47.4651 92.7074 45.3759 91.0389 42.7127L91.8864 42.1818ZM98.2045 48.0909L98.6798 47.2111C101.227 48.5873 104.047 49.6172 107.146 50.2959L106.932 51.2727L106.718 52.2496C103.453 51.5343 100.455 50.443 97.7292 48.9707L98.2045 48.0909ZM106.932 51.2727L107.153 50.2974C110.335 51.0179 113.532 51.5882 116.743 52.0085L116.614 53L116.484 53.9915C113.211 53.5633 109.953 52.9821 106.711 52.248L106.932 51.2727ZM116.614 53L116.741 52.0082C120.98 52.5531 124.41 52.9611 127.035 53.2326L126.932 54.2273L126.829 55.222C124.181 54.948 120.732 54.5378 116.486 53.9918L116.614 53ZM126.932 54.2273L127.045 53.2337C129.745 53.5405 131.853 54.058 133.248 54.8604L132.75 55.7273L132.252 56.5942C131.223 56.0026 129.452 55.5201 126.819 55.2209L126.932 54.2273ZM132.75 55.7273L133.239 54.8551C134.869 55.7695 135.614 57.3656 135.614 59.3636H134.614H133.614C133.614 57.9071 133.116 57.079 132.261 56.5994L132.75 55.7273ZM134.614 59.3636H135.614V59.7273H134.614H133.614V59.3636H134.614ZM134.614 59.7273H135.614C135.614 64.3971 134.331 68.1635 131.643 70.8846L130.932 70.1818L130.22 69.4791C132.442 67.2304 133.614 64.0271 133.614 59.7273H134.614ZM130.932 70.1818L131.648 70.8801C128.967 73.6272 124.98 74.9091 119.886 74.9091V73.9091V72.9091C124.672 72.9091 128.048 71.7061 130.216 69.4835L130.932 70.1818ZM119.886 73.9091V74.9091C114.63 74.9091 110.372 73.7589 107.23 71.3375L107.841 70.5455L108.451 69.7534C111.128 71.8168 114.901 72.9091 119.886 72.9091V73.9091ZM107.841 70.5455L107.23 71.3375C104.232 69.0262 102.065 66.5138 100.798 63.7848L101.705 63.3636L102.612 62.9425C103.708 65.3044 105.632 67.5798 108.451 69.7534L107.841 70.5455ZM101.705 63.3636L102.041 64.3054L91.8591 67.9417L91.5227 67L91.1864 66.0583L101.368 62.4219L101.705 63.3636ZM91.5227 67L92.4419 66.6061C94.2069 70.7245 96.5375 73.8797 99.4105 76.1206L98.7954 76.9091L98.1804 77.6976C94.9928 75.2112 92.4749 71.7604 90.6036 67.3939L91.5227 67ZM98.7954 76.9091L99.4115 76.1214C102.369 78.4348 105.58 80.038 109.048 80.9414L108.795 81.9091L108.543 82.8768C104.799 81.9014 101.343 80.1713 98.1793 77.6968L98.7954 76.9091ZM108.795 81.9091L109.053 80.9429C112.611 81.8917 116.1 82.3636 119.523 82.3636V83.3636V84.3636C115.915 84.3636 112.252 83.8659 108.538 82.8753L108.795 81.9091ZM119.523 83.3636V82.3636C121.687 82.3636 124.199 82.1 127.066 81.5626L127.25 82.5455L127.434 83.5283C124.482 84.0818 121.843 84.3636 119.523 84.3636V83.3636ZM127.25 82.5455L127.077 81.5605C129.888 81.0679 132.606 80.0381 135.235 78.4607L135.75 79.3182L136.264 80.1757C133.439 81.871 130.491 82.9928 127.423 83.5304L127.25 82.5455ZM135.75 79.3182L135.24 78.4582C137.819 76.9278 139.99 74.6013 141.738 71.4269L142.614 71.9091L143.49 72.3913C141.601 75.8229 139.196 78.4359 136.26 80.1782L135.75 79.3182ZM142.614 71.9091L141.738 71.4269C143.445 68.3249 144.341 64.087 144.341 58.6364H145.341H146.341C146.341 64.2767 145.419 68.8872 143.49 72.3913L142.614 71.9091ZM145.341 58.6364H144.341V12.6364H145.341H146.341V58.6364H145.341ZM145.341 12.6364V13.6364H134.614V12.6364V11.6364H145.341V12.6364ZM134.614 12.6364H135.614V22.0909H134.614H133.614V12.6364H134.614ZM134.614 22.0909V23.0909H134.068V22.0909V21.0909H134.614V22.0909ZM134.068 22.0909L133.167 22.5236C132.503 21.1408 131.369 19.6085 129.718 17.9281L130.432 17.2273L131.145 16.5265C132.888 18.3006 134.179 20.0107 134.97 21.6582L134.068 22.0909ZM130.432 17.2273L129.718 17.9281C128.133 16.3145 125.994 14.9108 123.264 13.7368L123.659 12.8182L124.054 11.8995C126.961 13.1498 129.337 14.6855 131.145 16.5265L130.432 17.2273ZM123.659 12.8182L123.264 13.7368C120.604 12.5927 117.307 12 113.341 12V11V10C117.496 10 121.078 10.6194 124.054 11.8995L123.659 12.8182ZM114.977 20.6364V19.6364C119.349 19.6364 123.106 20.4952 126.202 22.2687L125.705 23.1364L125.207 24.0041C122.485 22.4442 119.091 21.6364 114.977 21.6364V20.6364ZM125.705 23.1364L126.198 22.2665C129.276 24.0121 131.628 26.2874 133.212 29.1002L132.341 29.5909L131.47 30.0816C130.084 27.6217 128.012 25.594 125.211 24.0063L125.705 23.1364ZM132.341 29.5909L133.208 29.0926C134.806 31.8735 135.614 34.8171 135.614 37.9091H134.614H133.614C133.614 35.1829 132.906 32.5811 131.474 30.0892L132.341 29.5909ZM134.614 37.9091H135.614V47.7273H134.614H133.614V37.9091H134.614ZM134.614 47.7273L133.845 48.3675C133.743 48.2441 133.515 48.0575 133.076 47.8376C132.646 47.6229 132.07 47.4038 131.331 47.1866L131.614 46.2273L131.896 45.2679C132.703 45.5053 133.399 45.7635 133.97 46.0488C134.53 46.3289 135.03 46.665 135.382 47.0871L134.614 47.7273ZM131.614 46.2273L131.344 47.1902C129.872 46.778 128.151 46.4063 126.177 46.0773L126.341 45.0909L126.505 44.1045C128.531 44.4422 130.325 44.8281 131.883 45.2643L131.614 46.2273ZM126.341 45.0909L126.189 46.0793C124.227 45.7774 122.311 45.5058 120.44 45.2645L120.568 44.2727L120.696 43.281C122.583 43.5245 124.516 43.7983 126.493 44.1025L126.341 45.0909ZM120.568 44.2727L120.454 45.2662C118.603 45.0538 117.097 44.8713 115.938 44.7187L116.068 43.7273L116.199 42.7358C117.342 42.8863 118.836 43.0674 120.682 43.2792L120.568 44.2727ZM116.068 43.7273L115.939 44.7189C113.092 44.3476 110.422 43.743 107.93 42.902L108.25 41.9545L108.57 41.0071C110.926 41.8024 113.468 42.3797 116.198 42.7357L116.068 43.7273ZM108.25 41.9545L107.937 42.9044C105.407 42.0716 103.314 40.7911 101.698 39.0425L102.432 38.3636L103.166 37.6848C104.519 39.1483 106.305 40.2617 108.563 41.0047L108.25 41.9545ZM102.432 38.3636L101.697 39.0419C100.029 37.2352 99.25 34.8169 99.25 31.9091H100.25H101.25C101.25 34.4559 101.925 36.3405 103.167 37.6854L102.432 38.3636ZM100.25 31.9091H99.25C99.25 27.8963 100.756 24.7513 103.817 22.6324L104.386 23.4545L104.956 24.2767C102.501 25.976 101.25 28.4673 101.25 31.9091H100.25ZM104.386 23.4545L103.828 22.6253C106.82 20.6085 110.559 19.6364 114.977 19.6364V20.6364V21.6364C110.85 21.6364 107.528 22.543 104.945 24.2838L104.386 23.4545ZM175.648 105.727H176.648V106.727H175.648V105.727ZM175.648 12.6364V11.6364H176.648V12.6364H175.648ZM164.92 12.6364H163.92V11.6364H164.92V12.6364ZM164.92 105.727V106.727H163.92V105.727H164.92ZM175.648 105.727H174.648V12.6364H175.648H176.648V105.727H175.648ZM175.648 12.6364V13.6364H164.92V12.6364V11.6364H175.648V12.6364ZM164.92 12.6364H165.92V105.727H164.92H163.92V12.6364H164.92ZM164.92 105.727V104.727H175.648V105.727V106.727H164.92V105.727ZM206.75 15.8182L206.203 14.9812L206.203 14.9812L206.75 15.8182ZM195.932 65.9545L195.031 66.3897L195.03 66.3876L195.932 65.9545ZM206.932 78.7273L207.478 77.8894L207.479 77.8903L206.932 78.7273ZM246.432 73L247.225 73.6094L247.225 73.6094L246.432 73ZM251.114 61.5455V60.5455H252.262L252.104 61.683L251.114 61.5455ZM240.386 61.5455L239.418 61.2964L239.611 60.5455H240.386V61.5455ZM234.932 70L234.266 69.2534L234.275 69.2459L234.932 70ZM212.659 70.4545L213.227 69.6312L213.228 69.6324L212.659 70.4545ZM205.341 61.3182L204.428 61.7256L204.426 61.7223L205.341 61.3182ZM205.295 33.4545L204.375 33.064L204.377 33.0581L205.295 33.4545ZM212.568 24.1364L211.99 23.3205L211.994 23.3179L212.568 24.1364ZM231.25 22.2727L230.858 23.1925L230.858 23.1925L231.25 22.2727ZM237.023 26.4545L237.778 25.7996L237.778 25.7996L237.023 26.4545ZM240.386 33V34H239.615L239.419 33.2534L240.386 33ZM251.114 33L252.103 32.8545L252.271 34H251.114V33ZM246.614 21.8636L245.804 22.4505L245.803 22.4491L246.614 21.8636ZM237.205 14.0455L237.646 13.1482L237.649 13.1496L237.205 14.0455ZM223.659 11.1818V12.1818C217.276 12.1818 211.837 13.6867 207.297 16.6552L206.75 15.8182L206.203 14.9812C211.117 11.7679 216.951 10.1818 223.659 10.1818V11.1818ZM206.75 15.8182L207.297 16.6552C202.735 19.6383 199.218 23.7488 196.746 29.0157L195.841 28.5909L194.936 28.1661C197.555 22.5846 201.311 18.1799 206.203 14.9812L206.75 15.8182ZM195.841 28.5909L196.746 29.0157C194.272 34.287 193.023 40.3351 193.023 47.1818H192.023H191.023C191.023 40.0891 192.318 33.7433 194.936 28.1661L195.841 28.5909ZM192.023 47.1818H193.023C193.023 54.1493 194.303 60.2544 196.833 65.5215L195.932 65.9545L195.03 66.3876C192.349 60.8062 191.023 54.3961 191.023 47.1818H192.023ZM195.932 65.9545L196.832 65.5194C199.396 70.8236 202.946 74.9363 207.478 77.8895L206.932 78.7273L206.386 79.5651C201.524 76.3971 197.74 71.9945 195.031 66.3897L195.932 65.9545ZM206.932 78.7273L207.479 77.8903C212.025 80.8627 217.345 82.3636 223.477 82.3636V83.3636V84.3636C217.003 84.3636 211.293 82.7736 206.385 79.5642L206.932 78.7273ZM223.477 83.3636V82.3636C228.261 82.3636 232.539 81.4784 236.331 79.7284L236.75 80.6364L237.169 81.5443C233.082 83.4307 228.512 84.3636 223.477 84.3636V83.3636ZM236.75 80.6364L236.331 79.7284C240.131 77.9745 243.227 75.5284 245.639 72.3906L246.432 73L247.225 73.6094C244.606 77.017 241.248 79.6619 237.169 81.5443L236.75 80.6364ZM246.432 73L245.639 72.3906C248.041 69.2647 249.539 65.6118 250.123 61.4079L251.114 61.5455L252.104 61.683C251.476 66.2064 249.853 70.1899 247.225 73.6094L246.432 73ZM251.114 61.5455V62.5455H240.386V61.5455V60.5455H251.114V61.5455ZM240.386 61.5455L241.355 61.7945C240.48 65.1985 238.538 68.1855 235.589 70.7541L234.932 70L234.275 69.2459C236.962 66.9054 238.657 64.2561 239.418 61.2964L240.386 61.5455ZM234.932 70L235.597 70.7465C232.581 73.4345 228.564 74.7273 223.659 74.7273V73.7273V72.7273C228.208 72.7273 231.707 71.5352 234.266 69.2535L234.932 70ZM223.659 73.7273V74.7273C219.293 74.7273 215.424 73.5849 212.09 71.2767L212.659 70.4545L213.228 69.6324C216.197 71.6878 219.661 72.7273 223.659 72.7273V73.7273ZM212.659 70.4545L212.092 71.2779C208.799 69.0083 206.25 65.8091 204.428 61.7256L205.341 61.3182L206.254 60.9107C207.947 64.706 210.277 67.5977 213.227 69.6312L212.659 70.4545ZM205.341 61.3182L204.426 61.7223C202.631 57.6599 201.75 52.9257 201.75 47.5455H202.75H203.75C203.75 52.7107 204.596 57.1583 206.256 60.914L205.341 61.3182ZM202.75 47.5455H201.75C201.75 42.0487 202.614 37.2135 204.375 33.064L205.295 33.4545L206.216 33.8451C204.582 37.6956 203.75 42.2543 203.75 47.5455H202.75ZM205.295 33.4545L204.377 33.0581C206.167 28.9137 208.699 25.6527 211.99 23.3205L212.568 24.1364L213.146 24.9522C210.195 27.0442 207.878 29.9954 206.214 33.851L205.295 33.4545ZM212.568 24.1364L211.994 23.3179C215.331 20.9756 219.233 19.8182 223.659 19.8182V20.8182V21.8182C219.6 21.8182 216.109 22.8729 213.143 24.9549L212.568 24.1364ZM223.659 20.8182V19.8182C226.565 19.8182 229.231 20.3239 231.642 21.3529L231.25 22.2727L230.858 23.1925C228.724 22.2821 226.329 21.8182 223.659 21.8182V20.8182ZM231.25 22.2727L231.642 21.3529C234.051 22.3806 236.101 23.8636 237.778 25.7996L237.023 26.4545L236.267 27.1095C234.793 25.4092 232.995 24.1043 230.858 23.1925L231.25 22.2727ZM237.023 26.4545L237.778 25.7996C239.464 27.7442 240.652 30.067 241.354 32.7466L240.386 33L239.419 33.2534C238.787 30.8421 237.733 28.8013 236.267 27.1095L237.023 26.4545ZM240.386 33V32H251.114V33V34H240.386V33ZM251.114 33L250.124 33.1455C249.541 29.1802 248.101 25.6202 245.804 22.4505L246.614 21.8636L247.423 21.2768C249.914 24.7131 251.474 28.5774 252.103 32.8545L251.114 33ZM246.614 21.8636L245.803 22.4491C243.542 19.3185 240.536 16.8145 236.76 14.9413L237.205 14.0455L237.649 13.1496C241.691 15.1552 244.958 17.8633 247.424 21.2781L246.614 21.8636ZM237.205 14.0455L236.763 14.9427C233.045 13.113 228.687 12.1818 223.659 12.1818V11.1818V10.1818C228.935 10.1818 233.606 11.1598 237.646 13.1482L237.205 14.0455ZM275.295 13.5L274.87 12.5952L274.876 12.5923L275.295 13.5ZM266.705 20.8182L265.87 20.2671L265.872 20.2635L266.705 20.8182ZM265.886 42.1818L266.731 41.6463L266.734 41.6509L265.886 42.1818ZM280.932 51.2727L281.146 50.2959L281.153 50.2974L280.932 51.2727ZM290.614 53L290.486 53.9918L290.484 53.9915L290.614 53ZM300.932 54.2273L301.035 53.2325L301.045 53.2337L300.932 54.2273ZM306.75 55.7273L306.261 56.5995L306.252 56.5942L306.75 55.7273ZM304.932 70.1818L304.216 69.4835L304.22 69.4791L304.932 70.1818ZM281.841 70.5455L282.451 69.7534L282.451 69.7534L281.841 70.5455ZM275.705 63.3636L275.368 62.4219L276.227 62.1151L276.612 62.9425L275.705 63.3636ZM265.523 67L264.604 67.3939L264.184 66.4161L265.186 66.0583L265.523 67ZM272.795 76.9091L273.41 76.1206L273.412 76.1214L272.795 76.9091ZM282.795 81.9091L283.048 80.9414L283.053 80.9429L282.795 81.9091ZM301.25 82.5455L301.066 81.5625L301.077 81.5605L301.25 82.5455ZM309.75 79.3182L309.235 78.4607L309.24 78.4582L309.75 79.3182ZM316.614 71.9091L315.738 71.4269L315.738 71.4269L316.614 71.9091ZM319.341 12.6364V11.6364H320.341V12.6364H319.341ZM308.614 12.6364H307.614V11.6364H308.614V12.6364ZM308.614 22.0909H309.614V23.0909H308.614V22.0909ZM308.068 22.0909V23.0909H307.439L307.167 22.5236L308.068 22.0909ZM304.432 17.2273L305.145 16.5265L305.145 16.5265L304.432 17.2273ZM297.659 12.8182L297.264 13.7368L297.264 13.7368L297.659 12.8182ZM299.705 23.1364L299.211 24.0063L299.207 24.0041L299.705 23.1364ZM306.341 29.5909L305.474 30.0892L305.47 30.0816L306.341 29.5909ZM308.614 47.7273H309.614V50.4893L307.845 48.3675L308.614 47.7273ZM305.614 46.2273L305.883 45.2642L305.896 45.2679L305.614 46.2273ZM300.341 45.0909L300.493 44.1025L300.505 44.1045L300.341 45.0909ZM294.568 44.2727L294.682 43.2791L294.696 43.281L294.568 44.2727ZM290.068 43.7273L290.198 42.7357L290.199 42.7358L290.068 43.7273ZM282.25 41.9545L282.563 41.0046L282.57 41.0071L282.25 41.9545ZM276.432 38.3636L275.698 39.0425L275.697 39.0419L276.432 38.3636ZM278.386 23.4545L277.817 22.6323L277.828 22.6253L278.386 23.4545ZM287.341 11V12C283.045 12 279.175 12.8084 275.715 14.4077L275.295 13.5L274.876 12.5923C278.628 10.8582 282.788 10 287.341 10V11ZM275.295 13.5L275.721 14.4048C272.273 16.0277 269.552 18.3491 267.537 21.3729L266.705 20.8182L265.872 20.2635C268.099 16.9236 271.106 14.3663 274.87 12.5952L275.295 13.5ZM266.705 20.8182L267.539 21.3692C265.544 24.3901 264.523 28.0689 264.523 32.4545H263.523H262.523C262.523 27.7493 263.623 23.6705 265.87 20.2671L266.705 20.8182ZM263.523 32.4545H264.523C264.523 36.3309 265.287 39.3695 266.731 41.6463L265.886 42.1818L265.042 42.7174C263.334 40.0245 262.523 36.5782 262.523 32.4545H263.523ZM265.886 42.1818L266.734 41.6509C268.217 44.0181 270.194 45.8682 272.68 47.2111L272.205 48.0909L271.729 48.9707C268.942 47.4651 266.707 45.3759 265.039 42.7127L265.886 42.1818ZM272.205 48.0909L272.68 47.2111C275.227 48.5873 278.047 49.6172 281.146 50.2959L280.932 51.2727L280.718 52.2496C277.453 51.5343 274.455 50.443 271.729 48.9707L272.205 48.0909ZM280.932 51.2727L281.153 50.2974C284.335 51.0179 287.532 51.5882 290.743 52.0085L290.614 53L290.484 53.9915C287.211 53.5633 283.953 52.9821 280.711 52.248L280.932 51.2727ZM290.614 53L290.741 52.0082C294.98 52.5531 298.41 52.9611 301.035 53.2326L300.932 54.2273L300.829 55.222C298.181 54.948 294.732 54.5378 290.486 53.9918L290.614 53ZM300.932 54.2273L301.045 53.2337C303.745 53.5405 305.853 54.058 307.248 54.8604L306.75 55.7273L306.252 56.5942C305.223 56.0026 303.452 55.5201 300.819 55.2209L300.932 54.2273ZM306.75 55.7273L307.239 54.8551C308.869 55.7695 309.614 57.3656 309.614 59.3636H308.614H307.614C307.614 57.9071 307.116 57.079 306.261 56.5994L306.75 55.7273ZM308.614 59.3636H309.614V59.7273H308.614H307.614V59.3636H308.614ZM308.614 59.7273H309.614C309.614 64.3971 308.331 68.1635 305.643 70.8846L304.932 70.1818L304.22 69.4791C306.442 67.2304 307.614 64.0271 307.614 59.7273H308.614ZM304.932 70.1818L305.648 70.8801C302.967 73.6272 298.98 74.9091 293.886 74.9091V73.9091V72.9091C298.672 72.9091 302.048 71.7061 304.216 69.4835L304.932 70.1818ZM293.886 73.9091V74.9091C288.63 74.9091 284.372 73.7589 281.23 71.3375L281.841 70.5455L282.451 69.7534C285.128 71.8168 288.901 72.9091 293.886 72.9091V73.9091ZM281.841 70.5455L281.23 71.3375C278.232 69.0262 276.065 66.5138 274.798 63.7848L275.705 63.3636L276.612 62.9425C277.708 65.3044 279.632 67.5798 282.451 69.7534L281.841 70.5455ZM275.705 63.3636L276.041 64.3054L265.859 67.9417L265.523 67L265.186 66.0583L275.368 62.4219L275.705 63.3636ZM265.523 67L266.442 66.6061C268.207 70.7245 270.538 73.8797 273.41 76.1206L272.795 76.9091L272.18 77.6976C268.993 75.2112 266.475 71.7604 264.604 67.3939L265.523 67ZM272.795 76.9091L273.412 76.1214C276.369 78.4348 279.58 80.038 283.048 80.9414L282.795 81.9091L282.543 82.8768C278.799 81.9014 275.343 80.1713 272.179 77.6968L272.795 76.9091ZM282.795 81.9091L283.053 80.9429C286.611 81.8917 290.1 82.3636 293.523 82.3636V83.3636V84.3636C289.915 84.3636 286.252 83.8659 282.538 82.8753L282.795 81.9091ZM293.523 83.3636V82.3636C295.687 82.3636 298.199 82.1 301.066 81.5626L301.25 82.5455L301.434 83.5283C298.482 84.0818 295.843 84.3636 293.523 84.3636V83.3636ZM301.25 82.5455L301.077 81.5605C303.888 81.0679 306.606 80.0381 309.235 78.4607L309.75 79.3182L310.264 80.1757C307.439 81.871 304.491 82.9928 301.423 83.5304L301.25 82.5455ZM309.75 79.3182L309.24 78.4582C311.819 76.9278 313.99 74.6013 315.738 71.4269L316.614 71.9091L317.49 72.3913C315.601 75.8229 313.196 78.4359 310.26 80.1782L309.75 79.3182ZM316.614 71.9091L315.738 71.4269C317.445 68.3249 318.341 64.087 318.341 58.6364H319.341H320.341C320.341 64.2767 319.419 68.8872 317.49 72.3913L316.614 71.9091ZM319.341 58.6364H318.341V12.6364H319.341H320.341V58.6364H319.341ZM319.341 12.6364V13.6364H308.614V12.6364V11.6364H319.341V12.6364ZM308.614 12.6364H309.614V22.0909H308.614H307.614V12.6364H308.614ZM308.614 22.0909V23.0909H308.068V22.0909V21.0909H308.614V22.0909ZM308.068 22.0909L307.167 22.5236C306.503 21.1408 305.369 19.6085 303.718 17.9281L304.432 17.2273L305.145 16.5265C306.888 18.3006 308.179 20.0107 308.97 21.6582L308.068 22.0909ZM304.432 17.2273L303.718 17.9281C302.133 16.3145 299.994 14.9108 297.264 13.7368L297.659 12.8182L298.054 11.8995C300.961 13.1498 303.337 14.6855 305.145 16.5265L304.432 17.2273ZM297.659 12.8182L297.264 13.7368C294.604 12.5927 291.307 12 287.341 12V11V10C291.496 10 295.078 10.6194 298.054 11.8995L297.659 12.8182ZM288.977 20.6364V19.6364C293.349 19.6364 297.106 20.4952 300.202 22.2687L299.705 23.1364L299.207 24.0041C296.485 22.4442 293.091 21.6364 288.977 21.6364V20.6364ZM299.705 23.1364L300.198 22.2665C303.276 24.0121 305.628 26.2874 307.212 29.1002L306.341 29.5909L305.47 30.0816C304.084 27.6217 302.012 25.594 299.211 24.0063L299.705 23.1364ZM306.341 29.5909L307.208 29.0926C308.806 31.8735 309.614 34.8171 309.614 37.9091H308.614H307.614C307.614 35.1829 306.906 32.5811 305.474 30.0892L306.341 29.5909ZM308.614 37.9091H309.614V47.7273H308.614H307.614V37.9091H308.614ZM308.614 47.7273L307.845 48.3675C307.743 48.2441 307.515 48.0575 307.076 47.8376C306.646 47.6229 306.07 47.4038 305.331 47.1866L305.614 46.2273L305.896 45.2679C306.703 45.5053 307.399 45.7635 307.97 46.0488C308.53 46.3289 309.03 46.665 309.382 47.0871L308.614 47.7273ZM305.614 46.2273L305.344 47.1902C303.872 46.778 302.151 46.4063 300.177 46.0773L300.341 45.0909L300.505 44.1045C302.531 44.4422 304.325 44.8281 305.883 45.2643L305.614 46.2273ZM300.341 45.0909L300.189 46.0793C298.227 45.7774 296.311 45.5058 294.44 45.2645L294.568 44.2727L294.696 43.281C296.583 43.5245 298.516 43.7983 300.493 44.1025L300.341 45.0909ZM294.568 44.2727L294.454 45.2662C292.603 45.0538 291.097 44.8713 289.938 44.7187L290.068 43.7273L290.199 42.7358C291.342 42.8863 292.836 43.0674 294.682 43.2792L294.568 44.2727ZM290.068 43.7273L289.939 44.7189C287.092 44.3476 284.422 43.743 281.93 42.902L282.25 41.9545L282.57 41.0071C284.926 41.8024 287.468 42.3797 290.198 42.7357L290.068 43.7273ZM282.25 41.9545L281.937 42.9044C279.407 42.0716 277.314 40.7911 275.698 39.0425L276.432 38.3636L277.166 37.6848C278.519 39.1483 280.305 40.2617 282.563 41.0047L282.25 41.9545ZM276.432 38.3636L275.697 39.0419C274.029 37.2352 273.25 34.8169 273.25 31.9091H274.25H275.25C275.25 34.4559 275.925 36.3405 277.167 37.6854L276.432 38.3636ZM274.25 31.9091H273.25C273.25 27.8963 274.756 24.7513 277.817 22.6324L278.386 23.4545L278.956 24.2767C276.501 25.976 275.25 28.4673 275.25 31.9091H274.25ZM278.386 23.4545L277.828 22.6253C280.82 20.6085 284.559 19.6364 288.977 19.6364V20.6364V21.6364C284.85 21.6364 281.528 22.543 278.945 24.2838L278.386 23.4545ZM338.92 12.6364H337.92V11.6364H338.92V12.6364ZM338.92 82.4545V83.4545H337.92V82.4545H338.92ZM349.284 82.4545H350.284V83.4545H349.284V82.4545ZM349.284 71.9091H348.284V70.9091H349.284V71.9091ZM350.011 71.9091V70.9091H350.709L350.95 71.5634L350.011 71.9091ZM356.92 80.3182L356.378 81.1584L356.378 81.1584L356.92 80.3182ZM373.83 83.3636H374.83V84.2686L373.929 84.3587L373.83 83.3636ZM373.83 72.4545L373.587 71.4844L374.83 71.1738V72.4545H373.83ZM371.33 72.8636L371.165 71.8772L371.178 71.8751L371.191 71.8732L371.33 72.8636ZM358.193 71.0455L358.661 70.1614L358.664 70.1634L358.193 71.0455ZM351.92 65.2273L351.071 65.7554L351.07 65.7525L351.92 65.2273ZM349.648 12.6364V11.6364H350.648V12.6364H349.648ZM338.92 12.6364H339.92V82.4545H338.92H337.92V12.6364H338.92ZM338.92 82.4545V81.4545H349.284V82.4545V83.4545H338.92V82.4545ZM349.284 82.4545H348.284V71.9091H349.284H350.284V82.4545H349.284ZM349.284 71.9091V70.9091H350.011V71.9091V72.9091H349.284V71.9091ZM350.011 71.9091L350.95 71.5634C352.142 74.7984 354.297 77.4343 357.463 79.478L356.92 80.3182L356.378 81.1584C352.878 78.899 350.427 75.9289 349.073 72.2548L350.011 71.9091ZM356.92 80.3182L357.463 79.478C360.626 81.5194 364.193 82.5455 368.193 82.5455V83.5455V84.5455C363.83 84.5455 359.882 83.42 356.378 81.1584L356.92 80.3182ZM368.193 83.5455V82.5455C368.969 82.5455 369.945 82.5305 371.122 82.5003L371.148 83.5L371.173 84.4997C369.987 84.5301 368.993 84.5455 368.193 84.5455V83.5455ZM371.148 83.5L371.122 82.5003C372.298 82.4702 373.162 82.4254 373.73 82.3686L373.83 83.3636L373.929 84.3587C373.285 84.4231 372.362 84.4692 371.173 84.4997L371.148 83.5ZM373.83 83.3636H372.83V72.4545H373.83H374.83V83.3636H373.83ZM373.83 72.4545L374.072 73.4247C373.646 73.5311 372.756 73.6743 371.468 73.854L371.33 72.8636L371.191 71.8732C372.509 71.6893 373.285 71.5598 373.587 71.4844L373.83 72.4545ZM371.33 72.8636L371.494 73.85C370.162 74.0721 368.758 74.1818 367.284 74.1818V73.1818V72.1818C368.659 72.1818 369.952 72.0794 371.165 71.8772L371.33 72.8636ZM367.284 73.1818V74.1818C363.746 74.1818 360.551 73.4383 357.722 71.9275L358.193 71.0455L358.664 70.1634C361.169 71.5011 364.034 72.1818 367.284 72.1818V73.1818ZM358.193 71.0455L357.726 71.9295C354.936 70.4545 352.712 68.3936 351.071 65.7554L351.92 65.2273L352.77 64.6991C354.22 67.0307 356.178 68.8486 358.661 70.1614L358.193 71.0455ZM351.92 65.2273L351.07 65.7525C349.448 63.1257 348.648 60.1374 348.648 56.8182H349.648H350.648C350.648 59.802 351.363 62.4198 352.771 64.702L351.92 65.2273ZM349.648 56.8182H348.648V12.6364H349.648H350.648V56.8182H349.648ZM349.648 12.6364V13.6364H338.92V12.6364V11.6364H349.648V12.6364ZM472 66.8182L472.272 65.856L473.282 66.1416L472.948 67.1361L472 66.8182ZM462.364 64.0909L461.428 63.7379L461.752 62.8786L462.636 63.1287L462.364 64.0909ZM459.682 68.7727L458.88 68.1752L458.887 68.1664L458.893 68.1577L459.682 68.7727ZM454.955 72.5909L455.402 73.4853L455.402 73.4853L454.955 72.5909ZM436.591 71.1364L437.158 70.3126L437.16 70.3139L436.591 71.1364ZM435.273 57.4091L434.65 56.627L434.65 56.627L435.273 57.4091ZM444.364 53.5455L444.121 52.5753L444.125 52.5743L444.364 53.5455ZM454.727 51L454.489 50.0289L454.491 50.0282L454.727 51ZM468.682 44.0455L467.968 43.3453L467.971 43.3418L468.682 44.0455ZM469.818 21.3636L469.011 21.9537L469.007 21.9486L469.818 21.3636ZM428.318 15.8182L428.87 16.6519L428.87 16.6519L428.318 15.8182ZM419.455 29.3636L419.212 30.3338L418.279 30.1005L418.476 29.1589L419.455 29.3636ZM429.636 31.9091L430.605 32.159L430.357 33.1199L429.394 32.8792L429.636 31.9091ZM435.136 23.4545L434.565 22.634L434.569 22.631L435.136 23.4545ZM457.727 23.8182L458.312 23.0073L458.314 23.0084L457.727 23.8182ZM459.636 37.6364L458.936 36.9229L458.942 36.9165L459.636 37.6364ZM451.818 41.3636L451.59 40.39L451.591 40.3897L451.818 41.3636ZM440.182 44.0909L439.951 43.1179L439.954 43.1173L440.182 44.0909ZM426.091 51.1364L425.357 50.4575L425.363 50.4504L426.091 51.1364ZM424.955 73.6364L424.151 74.2312L424.147 74.226L424.955 73.6364ZM434.091 80.7727L433.684 81.6863L433.681 81.6851L434.091 80.7727ZM463.545 78.8182L462.936 78.0256L462.939 78.0233L463.545 78.8182ZM472 66.8182L471.728 67.7804L462.091 65.0531L462.364 64.0909L462.636 63.1287L472.272 65.856L472 66.8182ZM462.364 64.0909L463.299 64.444C462.654 66.1548 461.707 67.8026 460.47 69.3878L459.682 68.7727L458.893 68.1577C460.02 66.7126 460.861 65.2392 461.428 63.7379L462.364 64.0909ZM459.682 68.7727L460.484 69.3702C459.225 71.0597 457.519 72.4266 455.402 73.4853L454.955 72.5909L454.507 71.6965C456.39 70.7552 457.836 69.5767 458.88 68.1752L459.682 68.7727ZM454.955 72.5909L455.402 73.4853C453.219 74.5767 450.491 75.0909 447.273 75.0909V74.0909V73.0909C450.296 73.0909 452.69 72.6052 454.507 71.6965L454.955 72.5909ZM447.273 74.0909V75.0909C442.845 75.0909 439.073 74.0687 436.022 71.9589L436.591 71.1364L437.16 70.3139C439.805 72.1434 443.155 73.0909 447.273 73.0909V74.0909ZM436.591 71.1364L436.024 71.9601C432.979 69.8646 431.364 67.1066 431.364 63.7273H432.364H433.364C433.364 66.3479 434.567 68.5294 437.158 70.3126L436.591 71.1364ZM432.364 63.7273H431.364C431.364 60.7825 432.452 58.3781 434.65 56.627L435.273 57.4091L435.896 58.1912C434.215 59.531 433.364 61.3387 433.364 63.7273H432.364ZM435.273 57.4091L434.65 56.627C436.754 54.9503 439.946 53.619 444.121 52.5753L444.364 53.5455L444.606 54.5156C440.538 55.5325 437.671 56.777 435.896 58.1912L435.273 57.4091ZM444.364 53.5455L444.125 52.5743L454.489 50.0289L454.727 51L454.966 51.9711L444.602 54.5166L444.364 53.5455ZM454.727 51L454.491 50.0282C460.632 48.5377 465.086 46.2844 467.968 43.3453L468.682 44.0455L469.396 44.7456C466.157 48.0489 461.307 50.432 454.963 51.9718L454.727 51ZM468.682 44.0455L467.971 43.3418C470.823 40.4616 472.273 36.7411 472.273 32.0909H473.273H474.273C474.273 37.1983 472.662 41.4475 469.392 44.7491L468.682 44.0455ZM473.273 32.0909H472.273C472.273 28.2974 471.185 24.9294 469.011 21.9537L469.818 21.3636L470.626 20.7736C473.057 24.1009 474.273 27.8844 474.273 32.0909H473.273ZM469.818 21.3636L469.007 21.9486C466.853 18.9612 463.821 16.5803 459.867 14.8229L460.273 13.9091L460.679 12.9953C464.907 14.8742 468.238 17.463 470.629 20.7787L469.818 21.3636ZM460.273 13.9091L459.867 14.8229C455.928 13.0722 451.313 12.1818 446 12.1818V11.1818V10.1818C451.535 10.1818 456.436 11.1096 460.679 12.9953L460.273 13.9091ZM446 11.1818V12.1818C439.022 12.1818 433.334 13.6955 428.87 16.6519L428.318 15.8182L427.766 14.9845C432.636 11.759 438.736 10.1818 446 10.1818V11.1818ZM428.318 15.8182L428.87 16.6519C424.443 19.5845 421.627 23.8628 420.433 29.5684L419.455 29.3636L418.476 29.1589C419.767 22.9857 422.86 18.2336 427.766 14.9845L428.318 15.8182ZM419.455 29.3636L419.697 28.3935L429.879 30.9389L429.636 31.9091L429.394 32.8792L419.212 30.3338L419.455 29.3636ZM429.636 31.9091L428.668 31.6592C429.686 27.7141 431.637 24.6734 434.565 22.634L435.136 23.4545L435.708 24.2751C433.242 25.9933 431.526 28.5889 430.605 32.159L429.636 31.9091ZM435.136 23.4545L434.569 22.631C437.51 20.6052 441.287 19.6364 445.818 19.6364V20.6364V21.6364C441.562 21.6364 438.217 22.5464 435.704 24.2781L435.136 23.4545ZM445.818 20.6364V19.6364C450.95 19.6364 455.149 20.7243 458.312 23.0073L457.727 23.8182L457.142 24.6291C454.427 22.6696 450.686 21.6364 445.818 21.6364V20.6364ZM457.727 23.8182L458.314 23.0084C461.478 25.3009 463.182 28.1523 463.182 31.5455H462.182H461.182C461.182 28.9386 459.916 26.6385 457.141 24.628L457.727 23.8182ZM462.182 31.5455H463.182C463.182 34.2326 462.229 36.5254 460.33 38.3562L459.636 37.6364L458.942 36.9165C460.438 35.4746 461.182 33.7068 461.182 31.5455H462.182ZM459.636 37.6364L460.337 38.3498C458.458 40.1954 455.653 41.4977 452.045 42.3376L451.818 41.3636L451.591 40.3897C455.013 39.5932 457.421 38.4107 458.936 36.9229L459.636 37.6364ZM451.818 41.3636L452.046 42.3373L440.41 45.0645L440.182 44.0909L439.954 43.1173L451.59 40.39L451.818 41.3636ZM440.182 44.0909L440.412 45.064C434.119 46.5553 429.633 48.8375 426.818 51.8224L426.091 51.1364L425.363 50.4504C428.549 47.0716 433.457 44.6569 439.951 43.1179L440.182 44.0909ZM426.091 51.1364L426.825 51.8152C424.044 54.8232 422.636 58.5876 422.636 63.1818H421.636H420.636C420.636 58.1397 422.198 53.8738 425.357 50.4575L426.091 51.1364ZM421.636 63.1818H422.636C422.636 66.9206 423.682 70.1965 425.762 73.0468L424.955 73.6364L424.147 74.226C421.803 71.0156 420.636 67.3219 420.636 63.1818H421.636ZM424.955 73.6364L425.758 73.0415C427.887 75.9181 430.789 78.1949 434.5 79.8604L434.091 80.7727L433.681 81.6851C429.695 79.8961 426.507 77.4152 424.151 74.2312L424.955 73.6364ZM434.091 80.7727L434.498 79.8592C438.23 81.5212 442.482 82.3636 447.273 82.3636V83.3636V84.3636C442.245 84.3636 437.709 83.4788 433.684 81.6862L434.091 80.7727ZM447.273 83.3636V82.3636C454.046 82.3636 459.228 80.8777 462.936 78.0256L463.545 78.8182L464.155 79.6108C459.984 82.8193 454.318 84.3636 447.273 84.3636V83.3636ZM463.545 78.8182L462.939 78.0233C466.741 75.1205 469.445 71.2903 471.052 66.5002L472 66.8182L472.948 67.1361C471.221 72.2854 468.289 76.4553 464.152 79.6131L463.545 78.8182ZM519.784 82.4545H520.784V83.4545H519.784V82.4545ZM519.784 73.3636V72.3636H520.784V73.3636H519.784ZM483.602 73.3636H482.602V72.3636H483.602V73.3636ZM483.602 82.4545V83.4545H482.602V82.4545H483.602ZM494.148 99.1818V100.182H493.148V99.1818H494.148ZM504.875 99.1818H505.875V100.182H504.875V99.1818ZM506.193 25.8182L505.328 25.3165L505.334 25.3062L505.34 25.296L506.193 25.8182ZM509.648 22.8182L509.301 21.8802L509.313 21.8757L509.325 21.8715L509.648 22.8182ZM517.057 22.2727L517.215 21.2853L517.234 21.2883L517.253 21.2921L517.057 22.2727ZM518.875 22.6364L519.85 22.8572L519.635 23.8082L518.679 23.6169L518.875 22.6364ZM521.057 13L521.408 12.0637L522.225 12.37L522.032 13.2208L521.057 13ZM518.011 12.1818L517.806 13.1606L517.796 13.1583L517.785 13.1558L518.011 12.1818ZM504.148 13.6818L503.735 12.7708L503.739 12.7692L504.148 13.6818ZM496.966 19.6364L496.148 19.0604L496.153 19.0543L496.966 19.6364ZM519.784 82.4545H518.784V73.3636H519.784H520.784V82.4545H519.784ZM519.784 73.3636V74.3636H483.602V73.3636V72.3636H519.784V73.3636ZM483.602 73.3636H484.602V82.4545H483.602H482.602V73.3636H483.602ZM483.602 82.4545V81.4545H519.784V82.4545V83.4545H483.602V82.4545ZM494.148 99.1818V98.1818H504.875V99.1818V100.182H494.148V99.1818ZM504.875 99.1818H503.875V32.6364H504.875H505.875V99.1818H504.875ZM504.875 32.6364H503.875C503.875 29.5422 504.318 27.0583 505.328 25.3165L506.193 25.8182L507.058 26.3199C506.311 27.6084 505.875 29.67 505.875 32.6364H504.875ZM506.193 25.8182L505.34 25.296C506.346 23.6539 507.662 22.486 509.301 21.8802L509.648 22.8182L509.994 23.7562C508.846 24.1806 507.859 25.0128 507.046 26.3403L506.193 25.8182ZM509.648 22.8182L509.325 21.8715C510.858 21.3497 512.468 21.0909 514.148 21.0909V22.0909V23.0909C512.676 23.0909 511.286 23.317 509.97 23.7648L509.648 22.8182ZM514.148 22.0909V21.0909C515.357 21.0909 516.385 21.1525 517.215 21.2853L517.057 22.2727L516.899 23.2602C516.213 23.1505 515.302 23.0909 514.148 23.0909V22.0909ZM517.057 22.2727L517.253 21.2921C518.011 21.4437 518.617 21.5649 519.071 21.6558L518.875 22.6364L518.679 23.6169C518.224 23.526 517.618 23.4048 516.861 23.2533L517.057 22.2727ZM518.875 22.6364L517.9 22.4155L520.081 12.7792L521.057 13L522.032 13.2208L519.85 22.8572L518.875 22.6364ZM521.057 13L520.706 13.9363C520.048 13.6896 519.09 13.4291 517.806 13.1606L518.011 12.1818L518.216 11.203C519.539 11.4799 520.611 11.7649 521.408 12.0637L521.057 13ZM518.011 12.1818L517.785 13.1558C516.583 12.8763 515.014 12.7273 513.057 12.7273V11.7273V10.7273C515.099 10.7273 516.834 10.8813 518.238 11.2078L518.011 12.1818ZM513.057 11.7273V12.7273C510.175 12.7273 507.344 13.346 504.557 14.5945L504.148 13.6818L503.739 12.7692C506.77 11.4116 509.878 10.7273 513.057 10.7273V11.7273ZM504.148 13.6818L504.56 14.5928C501.848 15.8206 499.59 17.6891 497.779 20.2185L496.966 19.6364L496.153 19.0543C498.16 16.2503 500.69 14.1491 503.735 12.7708L504.148 13.6818ZM496.966 19.6364L497.783 20.2123C496.05 22.6731 495.148 25.8219 495.148 29.7273H494.148H493.148C493.148 25.5114 494.125 21.933 496.148 19.0604L496.966 19.6364ZM494.148 29.7273H495.148V99.1818H494.148H493.148V29.7273H494.148ZM579.92 82.4545V83.4545H578.92V82.4545H579.92ZM590.648 82.4545H591.648V83.4545H590.648V82.4545ZM590.648 12.6364V11.6364H591.648V12.6364H590.648ZM579.92 12.6364H578.92V11.6364H579.92V12.6364ZM579.92 24.4545H580.92V25.4545H579.92V24.4545ZM579.193 24.4545V25.4545H578.553L578.285 24.8736L579.193 24.4545ZM571.557 15.4091L572.136 14.5939L572.141 14.5973L571.557 15.4091ZM546.83 14.5909L546.333 13.7226L546.339 13.7193L546.83 14.5909ZM538.83 23.3182L537.934 22.8737L537.935 22.871L538.83 23.3182ZM535.92 82.4545V83.4545H534.92V82.4545H535.92ZM546.648 82.4545H547.648V83.4545H546.648V82.4545ZM550.92 26.6364L550.192 25.9514L550.195 25.9476L550.92 26.6364ZM570.057 24.1364L569.617 25.0347L569.614 25.0328L570.057 24.1364ZM577.057 30.4091L576.229 30.97L576.225 30.9638L577.057 30.4091ZM579.92 41.1818H580.92V82.4545H579.92H578.92V41.1818H579.92ZM579.92 82.4545V81.4545H590.648V82.4545V83.4545H579.92V82.4545ZM590.648 82.4545H589.648V12.6364H590.648H591.648V82.4545H590.648ZM590.648 12.6364V13.6364H579.92V12.6364V11.6364H590.648V12.6364ZM579.92 12.6364H580.92V24.4545H579.92H578.92V12.6364H579.92ZM579.92 24.4545V25.4545H579.193V24.4545V23.4545H579.92V24.4545ZM579.193 24.4545L578.285 24.8736C576.728 21.4987 574.3 18.6143 570.973 16.2209L571.557 15.4091L572.141 14.5973C575.722 17.1736 578.386 20.3195 580.101 24.0355L579.193 24.4545ZM571.557 15.4091L570.978 16.2243C567.73 13.9166 563.582 12.7273 558.466 12.7273V11.7273V10.7273C563.895 10.7273 568.475 11.9925 572.136 14.5939L571.557 15.4091ZM558.466 11.7273V12.7273C554.253 12.7273 550.547 13.6474 547.32 15.4625L546.83 14.5909L546.339 13.7193C549.9 11.7163 553.952 10.7273 558.466 10.7273V11.7273ZM546.83 14.5909L547.326 15.4592C544.122 17.29 541.585 20.0431 539.724 23.7654L538.83 23.3182L537.935 22.871C539.953 18.8357 542.75 15.7706 546.333 13.7227L546.83 14.5909ZM538.83 23.3182L539.725 23.7626C537.875 27.493 536.92 32.2529 536.92 38.0909H535.92H534.92C534.92 32.0501 535.906 26.9616 537.934 22.8737L538.83 23.3182ZM535.92 38.0909H536.92V82.4545H535.92H534.92V38.0909H535.92ZM535.92 82.4545V81.4545H546.648V82.4545V83.4545H535.92V82.4545ZM546.648 82.4545H545.648V38.8182H546.648H547.648V82.4545H546.648ZM546.648 38.8182H545.648C545.648 33.5328 547.132 29.2068 550.192 25.9515L550.92 26.6364L551.649 27.3213C549.012 30.1265 547.648 33.9217 547.648 38.8182H546.648ZM550.92 26.6364L550.195 25.9476C553.276 22.7044 557.212 21.0909 561.92 21.0909V22.0909V23.0909C557.72 23.0909 554.322 24.5077 551.645 27.3251L550.92 26.6364ZM561.92 22.0909V21.0909C564.763 21.0909 567.626 21.8187 570.5 23.24L570.057 24.1364L569.614 25.0328C566.973 23.7268 564.411 23.0909 561.92 23.0909V22.0909ZM570.057 24.1364L570.496 23.2381C573.457 24.6865 575.921 26.9028 577.889 29.8544L577.057 30.4091L576.225 30.9638C574.435 28.279 572.232 26.3135 569.617 25.0347L570.057 24.1364ZM577.057 30.4091L577.885 29.8482C579.934 32.873 580.92 36.6743 580.92 41.1818H579.92H578.92C578.92 36.962 577.998 33.5815 576.229 30.9699L577.057 30.4091ZM621.25 15.5909L620.695 14.7588L620.699 14.7562L621.25 15.5909ZM610.795 28.1364L609.888 27.7157L609.889 27.7138L610.795 28.1364ZM610.795 66.4545L609.889 66.8772L609.889 66.8772L610.795 66.4545ZM621.295 78.9545L620.747 79.7909L620.747 79.7909L621.295 78.9545ZM647.614 81.0909L647.115 80.2238L647.127 80.2172L647.614 81.0909ZM653.705 76L652.897 75.4103L652.902 75.4031L652.908 75.3959L653.705 76ZM657.023 71.3636L656.184 70.8187L656.48 70.3636H657.023V71.3636ZM657.932 71.3636V70.3636H658.932V71.3636H657.932ZM657.932 105.727V106.727H656.932V105.727H657.932ZM668.659 105.727H669.659V106.727H668.659V105.727ZM668.659 12.6364V11.6364H669.659V12.6364H668.659ZM658.295 12.6364H657.295V11.6364H658.295V12.6364ZM658.295 23.3636H659.295V24.3636H658.295V23.3636ZM657.023 23.3636V24.3636H656.466L656.172 23.89L657.023 23.3636ZM653.659 18.5455L654.455 17.9394L654.459 17.9455L653.659 18.5455ZM647.432 13.4091L647.914 12.5331L647.922 12.5373L647.432 13.4091ZM649.023 24.1818L649.625 23.3838L649.63 23.3877L649.023 24.1818ZM655.795 33.5909L656.728 33.2305L656.729 33.2329L655.795 33.5909ZM655.841 61.2273L654.908 60.8683L654.908 60.8659L655.841 61.2273ZM649.114 70.4091L648.516 69.6071L648.522 69.6032L649.114 70.4091ZM626.75 70.2273L627.359 69.4341L627.36 69.4349L626.75 70.2273ZM619.977 60.8182L619.043 61.1748L619.042 61.1709L619.977 60.8182ZM620.023 34L619.086 33.6504L619.089 33.642L620.023 34ZM626.841 24.3636L626.217 23.582L626.226 23.5751L626.841 24.3636ZM636.659 11.1818V12.1818C631.018 12.1818 626.077 13.6037 621.801 16.4256L621.25 15.5909L620.699 14.7562C625.332 11.6993 630.664 10.1818 636.659 10.1818V11.1818ZM621.25 15.5909L621.805 16.423C617.519 19.2799 614.148 23.3121 611.702 28.559L610.795 28.1364L609.889 27.7138C612.473 22.1728 616.072 17.8413 620.695 14.7589L621.25 15.5909ZM610.795 28.1364L611.703 28.557C609.261 33.8221 608.023 40.0815 608.023 47.3636H607.023H606.023C606.023 39.8579 607.299 33.2991 609.888 27.7157L610.795 28.1364ZM607.023 47.3636H608.023C608.023 54.5841 609.261 60.7974 611.702 66.0319L610.795 66.4545L609.889 66.8772C607.3 61.3238 606.023 54.8099 606.023 47.3636H607.023ZM610.795 66.4545L611.702 66.0319C614.147 71.2764 617.531 75.2917 621.844 78.1182L621.295 78.9545L620.747 79.7909C616.09 76.7386 612.474 72.4205 609.889 66.8772L610.795 66.4545ZM621.295 78.9545L621.844 78.1182C626.15 80.9406 631.137 82.3636 636.841 82.3636V83.3636V84.3636C630.787 84.3636 625.411 82.8473 620.747 79.7909L621.295 78.9545ZM636.841 83.3636V82.3636C641.292 82.3636 644.688 81.6192 647.115 80.2239L647.614 81.0909L648.112 81.9579C645.267 83.593 641.481 84.3636 636.841 84.3636V83.3636ZM647.614 81.0909L647.127 80.2172C649.703 78.783 651.609 77.1738 652.897 75.4103L653.705 76L654.512 76.5897C653.012 78.6443 650.858 80.4291 648.1 81.9646L647.614 81.0909ZM653.705 76L652.908 75.3959C654.325 73.526 655.415 72.002 656.184 70.8187L657.023 71.3636L657.861 71.9086C657.055 73.1495 655.932 74.7164 654.501 76.6041L653.705 76ZM657.023 71.3636V70.3636H657.932V71.3636V72.3636H657.023V71.3636ZM657.932 71.3636H658.932V105.727H657.932H656.932V71.3636H657.932ZM657.932 105.727V104.727H668.659V105.727V106.727H657.932V105.727ZM668.659 105.727H667.659V12.6364H668.659H669.659V105.727H668.659ZM668.659 12.6364V13.6364H658.295V12.6364V11.6364H668.659V12.6364ZM658.295 12.6364H659.295V23.3636H658.295H657.295V12.6364H658.295ZM658.295 23.3636V24.3636H657.023V23.3636V22.3636H658.295V23.3636ZM657.023 23.3636L656.172 23.89C655.407 22.6531 654.305 21.0737 652.859 19.1455L653.659 18.5455L654.459 17.9455C655.922 19.896 657.063 21.5287 657.873 22.8373L657.023 23.3636ZM653.659 18.5455L652.864 19.1515C651.512 17.3774 649.553 15.7478 646.942 14.2809L647.432 13.4091L647.922 12.5373C650.705 14.1007 652.897 15.8953 654.455 17.9394L653.659 18.5455ZM647.432 13.4091L646.95 14.2851C644.453 12.9103 641.047 12.1818 636.659 12.1818V11.1818V10.1818C641.241 10.1818 645.017 10.9381 647.914 12.5331L647.432 13.4091ZM638.114 20.8182V19.8182C642.599 19.8182 646.456 20.9905 649.625 23.3838L649.023 24.1818L648.42 24.9799C645.65 22.8883 642.235 21.8182 638.114 21.8182V20.8182ZM649.023 24.1818L649.63 23.3877C652.767 25.788 655.126 29.0845 656.728 33.2305L655.795 33.5909L654.863 33.9513C653.374 30.0973 651.218 27.1211 648.415 24.9759L649.023 24.1818ZM655.795 33.5909L656.729 33.2329C658.327 37.3997 659.114 42.1766 659.114 47.5455H658.114H657.114C657.114 42.3688 656.355 37.8428 654.862 33.9489L655.795 33.5909ZM658.114 47.5455H659.114C659.114 52.8522 658.343 57.5401 656.773 61.5887L655.841 61.2273L654.908 60.8659C656.37 57.0963 657.114 52.663 657.114 47.5455H658.114ZM655.841 61.2273L656.774 61.5863C655.201 65.6776 652.851 68.9041 649.706 71.215L649.114 70.4091L648.522 69.6032C651.316 67.5504 653.451 64.6558 654.908 60.8683L655.841 61.2273ZM649.114 70.4091L649.711 71.2111C646.539 73.5736 642.653 74.7273 638.114 74.7273V73.7273V72.7273C642.302 72.7273 645.748 71.6688 648.516 69.6071L649.114 70.4091ZM638.114 73.7273V74.7273C633.391 74.7273 629.376 73.5117 626.14 71.0196L626.75 70.2273L627.36 69.4349C630.184 71.6095 633.746 72.7273 638.114 72.7273V73.7273ZM626.75 70.2273L626.141 71.0205C622.977 68.5913 620.616 65.2954 619.043 61.1748L619.977 60.8182L620.912 60.4616C622.369 64.2804 624.523 67.2572 627.359 69.4341L626.75 70.2273ZM619.977 60.8182L619.042 61.1709C617.508 57.1017 616.75 52.5554 616.75 47.5455H617.75H618.75C618.75 52.3537 619.477 56.6559 620.913 60.4655L619.977 60.8182ZM617.75 47.5455H616.75C616.75 42.4737 617.523 37.838 619.086 33.6504L620.023 34L620.96 34.3496C619.492 38.2833 618.75 42.6778 618.75 47.5455H617.75ZM620.023 34L619.089 33.642C620.69 29.4666 623.061 26.1004 626.217 23.582L626.841 24.3636L627.465 25.1453C624.621 27.4148 622.446 30.4728 620.956 34.358L620.023 34ZM626.841 24.3636L626.226 23.5751C629.46 21.0524 633.445 19.8182 638.114 19.8182V20.8182V21.8182C633.813 21.8182 630.282 22.9476 627.456 25.1521L626.841 24.3636ZM689.795 12.6364H688.795V11.6364H689.795V12.6364ZM689.795 82.4545V83.4545H688.795V82.4545H689.795ZM700.523 82.4545H701.523V83.4545H700.523V82.4545ZM700.523 12.6364V11.6364H701.523V12.6364H700.523ZM689.841 96.2273L689.149 95.5056L689.156 95.4986L689.841 96.2273ZM689.841 106.5L689.156 107.229L689.149 107.222L689.841 106.5ZM700.614 106.5L699.921 105.778L699.929 105.771L700.614 106.5ZM700.614 96.2273L699.929 96.9559L699.921 96.949L700.614 96.2273ZM689.795 12.6364H690.795V82.4545H689.795H688.795V12.6364H689.795ZM689.795 82.4545V81.4545H700.523V82.4545V83.4545H689.795V82.4545ZM700.523 82.4545H699.523V12.6364H700.523H701.523V82.4545H700.523ZM700.523 12.6364V13.6364H689.795V12.6364V11.6364H700.523V12.6364ZM695.25 94.0909V95.0909C693.412 95.0909 691.854 95.707 690.526 96.9559L689.841 96.2273L689.156 95.4986C690.858 93.899 692.906 93.0909 695.25 93.0909V94.0909ZM689.841 96.2273L690.533 96.949C689.239 98.1907 688.614 99.6448 688.614 101.364H687.614H686.614C686.614 99.0825 687.474 97.1123 689.149 95.5056L689.841 96.2273ZM687.614 101.364H688.614C688.614 103.082 689.239 104.537 690.533 105.778L689.841 106.5L689.149 107.222C687.474 105.615 686.614 103.645 686.614 101.364H687.614ZM689.841 106.5L690.526 105.771C691.854 107.02 693.412 107.636 695.25 107.636V108.636V109.636C692.906 109.636 690.858 108.828 689.156 107.229L689.841 106.5ZM695.25 108.636V107.636C697.088 107.636 698.626 107.021 699.921 105.778L700.614 106.5L701.306 107.222C699.631 108.828 697.594 109.636 695.25 109.636V108.636ZM700.614 106.5L699.929 105.771C701.252 104.528 701.886 103.076 701.886 101.364H702.886H703.886C703.886 103.652 703.006 105.624 701.299 107.229L700.614 106.5ZM702.886 101.364H701.886C701.886 99.6517 701.252 98.1996 699.929 96.9559L700.614 96.2273L701.299 95.4986C703.006 97.1034 703.886 99.0756 703.886 101.364H702.886ZM700.614 96.2273L699.921 96.949C698.626 95.7065 697.088 95.0909 695.25 95.0909V94.0909V93.0909C697.594 93.0909 699.631 93.8995 701.306 95.5056L700.614 96.2273ZM731.943 15.6818L731.407 14.8375L731.41 14.8359L731.943 15.6818ZM720.852 28.2727L719.954 27.8336L719.956 27.8295L720.852 28.2727ZM720.852 66.2273L719.955 66.6685L719.953 66.6644L720.852 66.2273ZM731.943 78.8636L731.41 79.7095L731.407 79.708L731.943 78.8636ZM765.08 78.8636L764.544 78.0193L764.546 78.0178L765.08 78.8636ZM776.17 66.2273L775.271 65.7901L775.273 65.7861L776.17 66.2273ZM776.17 28.2727L775.274 28.7159L775.272 28.7118L776.17 28.2727ZM765.08 15.6818L764.546 16.5277L764.544 16.5261L765.08 15.6818ZM760.352 24.5L759.73 25.2831L759.73 25.2831L760.352 24.5ZM767.216 34.1818L768.153 33.8338L768.153 33.8338L767.216 34.1818ZM767.216 60.2273L768.154 60.573L768.154 60.573L767.216 60.2273ZM760.352 70L760.979 70.7794L760.979 70.7794L760.352 70ZM736.716 70L736.089 70.7794L736.089 70.7794L736.716 70ZM729.852 60.2273L728.914 60.573L728.914 60.573L729.852 60.2273ZM729.852 34.1818L728.915 33.8338L728.915 33.8338L729.852 34.1818ZM736.716 24.5L737.338 25.2831L737.338 25.2831L736.716 24.5ZM748.534 11.1818V12.1818C742.396 12.1818 737.056 13.6402 732.477 16.5277L731.943 15.6818L731.41 14.8359C736.346 11.7234 742.066 10.1818 748.534 10.1818V11.1818ZM731.943 15.6818L732.479 16.5261C727.918 19.4206 724.34 23.4734 721.749 28.7159L720.852 28.2727L719.956 27.8295C722.697 22.2841 726.514 17.943 731.407 14.8375L731.943 15.6818ZM720.852 28.2727L721.751 28.7118C719.193 33.9442 717.898 40.0916 717.898 47.1818H716.898H715.898C715.898 39.8478 717.239 33.3891 719.954 27.8336L720.852 28.2727ZM716.898 47.1818H717.898C717.898 54.3339 719.194 60.5273 721.752 65.7901L720.852 66.2273L719.953 66.6644C717.238 61.0788 715.898 54.5752 715.898 47.1818H716.898ZM720.852 66.2273L721.75 65.7861C724.342 71.0589 727.919 75.1257 732.479 78.0193L731.943 78.8636L731.407 79.708C726.512 76.6016 722.696 72.2442 719.955 66.6685L720.852 66.2273ZM731.943 78.8636L732.477 78.0178C737.056 80.9052 742.396 82.3636 748.534 82.3636V83.3636V84.3636C742.066 84.3636 736.346 82.822 731.41 79.7095L731.943 78.8636ZM748.534 83.3636V82.3636C754.672 82.3636 759.996 80.9052 764.544 78.0193L765.08 78.8636L765.615 79.708C760.708 82.8221 755.002 84.3636 748.534 84.3636V83.3636ZM765.08 78.8636L764.546 78.0178C769.135 75.1245 772.71 71.0593 775.271 65.7901L776.17 66.2273L777.07 66.6644C774.358 72.2437 770.54 76.6028 765.613 79.7095L765.08 78.8636ZM776.17 66.2273L775.273 65.7861C777.86 60.5243 779.17 54.3323 779.17 47.1818H780.17H781.17C781.17 54.5768 779.814 61.0818 777.068 66.6685L776.17 66.2273ZM780.17 47.1818H779.17C779.17 40.0932 777.86 33.9473 775.274 28.7159L776.17 28.2727L777.067 27.8295C779.814 33.386 781.17 39.8462 781.17 47.1818H780.17ZM776.17 28.2727L775.272 28.7118C772.711 23.473 769.136 19.4219 764.546 16.5277L765.08 15.6818L765.613 14.8359C770.538 17.9417 774.357 22.2845 777.069 27.8336L776.17 28.2727ZM765.08 15.6818L764.544 16.5261C759.996 13.6402 754.672 12.1818 748.534 12.1818V11.1818V10.1818C755.002 10.1818 760.708 11.7234 765.615 14.8375L765.08 15.6818ZM748.534 20.8182V19.8182C753.498 19.8182 757.671 21.0938 760.974 23.7169L760.352 24.5L759.73 25.2831C756.852 22.9971 753.146 21.8182 748.534 21.8182V20.8182ZM760.352 24.5L760.974 23.7169C764.22 26.2941 766.61 29.6771 768.153 33.8338L767.216 34.1818L766.278 34.5298C764.852 30.6866 762.667 27.615 759.73 25.2831L760.352 24.5ZM767.216 34.1818L768.153 33.8338C769.683 37.9552 770.443 42.4075 770.443 47.1818H769.443H768.443C768.443 42.6228 767.718 38.4085 766.278 34.5298L767.216 34.1818ZM769.443 47.1818H770.443C770.443 51.9562 769.683 56.4228 768.154 60.573L767.216 60.2273L766.278 59.8816C767.718 55.9712 768.443 51.7407 768.443 47.1818H769.443ZM767.216 60.2273L768.154 60.573C766.612 64.7588 764.223 68.1715 760.979 70.7794L760.352 70L759.726 69.2206C762.664 66.8588 764.85 63.7563 766.278 59.8816L767.216 60.2273ZM760.352 70L760.979 70.7794C757.676 73.4349 753.501 74.7273 748.534 74.7273V73.7273V72.7273C753.143 72.7273 756.847 71.5348 759.726 69.2206L760.352 70ZM748.534 73.7273V74.7273C743.567 74.7273 739.393 73.4349 736.089 70.7794L736.716 70L737.342 69.2206C740.221 71.5348 743.925 72.7273 748.534 72.7273V73.7273ZM736.716 70L736.089 70.7794C732.845 68.1715 730.456 64.7588 728.914 60.573L729.852 60.2273L730.791 59.8816C732.218 63.7563 734.405 66.8588 737.342 69.2206L736.716 70ZM729.852 60.2273L728.914 60.573C727.385 56.4228 726.625 51.9562 726.625 47.1818H727.625H728.625C728.625 51.7407 729.35 55.9712 730.791 59.8816L729.852 60.2273ZM727.625 47.1818H726.625C726.625 42.4075 727.385 37.9552 728.915 33.8338L729.852 34.1818L730.79 34.5298C729.35 38.4085 728.625 42.6228 728.625 47.1818H727.625ZM729.852 34.1818L728.915 33.8338C730.458 29.6771 732.849 26.2941 736.094 23.7169L736.716 24.5L737.338 25.2831C734.401 27.615 732.216 30.6866 730.79 34.5298L729.852 34.1818ZM736.716 24.5L736.094 23.7169C739.397 21.0938 743.57 19.8182 748.534 19.8182V20.8182V21.8182C743.922 21.8182 740.217 22.9971 737.338 25.2831L736.716 24.5Z" fill="black" mask="url(#path-1-outside-1_1_2)"/>
</g>
<defs>
<filter id="filter0_f_1_2" x="0" y="0" width="791.17" height="119.636" filterUnits="userSpaceOnUse" color-interpolation-filters="sRGB">
<feFlood flood-opacity="0" result="BackgroundImageFix"/>
<feBlend mode="normal" in="SourceGraphic" in2="BackgroundImageFix" result="shape"/>
<feGaussianBlur stdDeviation="1" result="effect1_foregroundBlur_1_2"/>
</filter>
<linearGradient id="paint0_linear_1_2" x1="393.708" y1="136.636" x2="393.708" y2="4.99252" gradientUnits="userSpaceOnUse">
<stop stop-color="#FFF7F7" stop-opacity="0"/>
<stop offset="1" stop-color="#F8F2F2"/>
</linearGradient>
</defs>
</svg>
